<?xml version="1.0" encoding="utf-8"?>
<!-- Generator: Adobe Illustrator 28.3.0, SVG Export Plug-In . SVG Version: 6.00 Build 0)  -->
<svg version="1.1" id="exportSvg" xmlns="http://www.w3.org/2000/svg" xmlns:xlink="http://www.w3.org/1999/xlink" x="0px" y="0px"
	 viewBox="0 0 750 521.4" style="enable-background:new 0 0 750 521.4;" xml:space="preserve">
<style type="text/css">
	.st0{fill:none;stroke:#E7E7E7;}
	.st1{fill:#ADD9AF;}
	.st2{fill:#005522;}
	.st3{fill:#A2A2A2;}
	.st4{font-family:'ArialMT';}
	.st5{font-size:15.0365px;}
	.st6{fill:none;stroke:#181818;stroke-linecap:square;}
	.st7{fill:#747474;}
	.st8{font-size:16px;}
	.st9{fill:none;stroke:#000000;stroke-width:0.75;stroke-miterlimit:10;}
</style>
<line class="st0" x1="31.4" y1="456.1" x2="750" y2="456.1"/>
<line class="st0" x1="31.4" y1="427.2" x2="750" y2="427.2"/>
<line class="st0" x1="31.4" y1="398.2" x2="750" y2="398.2"/>
<line class="st0" x1="31.4" y1="369.2" x2="750" y2="369.2"/>
<line class="st0" x1="31.4" y1="340.2" x2="750" y2="340.2"/>
<line class="st0" x1="31.4" y1="282.2" x2="750" y2="282.2"/>
<line class="st0" x1="31.4" y1="224.3" x2="750" y2="224.3"/>
<line class="st0" x1="31.4" y1="166.3" x2="750" y2="166.3"/>
<line class="st0" x1="31.4" y1="108.3" x2="750" y2="108.3"/>
<rect id="_x32_011-0" x="35.2" y="479.3" class="st1" width="43.6" height="5.8"/>
<rect id="_x32_012-1" x="90.8" y="482.2" class="st1" width="43.6" height="2.9"/>
<rect id="_x32_013-2" x="146.5" y="482.2" class="st1" width="43.6" height="2.9"/>
<rect id="_x32_014-3" x="202.1" y="479.3" class="st1" width="43.6" height="5.8"/>
<rect id="_x32_015-4" x="257.7" y="464.8" class="st1" width="43.6" height="20.3"/>
<rect id="_x32_016-5" x="313.2" y="482.2" class="st1" width="43.6" height="2.9"/>
<rect id="_x32_017-6" x="368.9" y="450.3" class="st1" width="43.6" height="34.8"/>
<rect id="_x32_018-7" x="424.5" y="421.4" class="st1" width="43.6" height="63.8"/>
<rect id="_x32_019-8" x="480.1" y="412.7" class="st1" width="43.6" height="72.5"/>
<rect id="_x32_020-9" x="535.7" y="366.3" class="st1" width="43.6" height="118.8"/>
<rect id="_x32_021-10" x="591.4" y="360.5" class="st1" width="43.6" height="124.6"/>
<rect id="_x32_022-11" x="647" y="180.8" class="st1" width="43.6" height="304.4"/>
<rect id="_x32_023-12" x="702.5" y="76.4" class="st2" width="43.6" height="408.7"/>
<text transform="matrix(1 0 0 1 8.3632 461.1581)" class="st3 st4 st5">10</text>
<text transform="matrix(1 0 0 1 8.3632 432.1708)" class="st3 st4 st5">20</text>
<text transform="matrix(1 0 0 1 8.3632 403.1835)" class="st3 st4 st5">30</text>
<text transform="matrix(1 0 0 1 8.3632 374.1972)" class="st3 st4 st5">40</text>
<text transform="matrix(1 0 0 1 8.3632 345.2099)" class="st3 st4 st5">50</text>
<text transform="matrix(1 0 0 1 8.3632 287.2362)" class="st3 st4 st5">70</text>
<text transform="matrix(1 0 0 1 8.3632 229.2621)" class="st3 st4 st5">90</text>
<text transform="matrix(1 0 0 1 1.1167 171.288)" class="st3 st4 st5">110</text>
<text transform="matrix(1 0 0 1 4.479046e-04 113.3143)" class="st3 st4 st5">130</text>
<line class="st6" x1="750" y1="485.1" x2="31.4" y2="485.1"/>
<text transform="matrix(1 0 0 1 40.852 506.4335)" class="st7 st4 st5">2011</text>
<text transform="matrix(1 0 0 1 151.5893 506.4335)" class="st7 st4 st5">2013</text>
<text transform="matrix(1 0 0 1 262.7324 506.4335)" class="st7 st4 st5">2015</text>
<text transform="matrix(1 0 0 1 374.0278 506.4335)" class="st7 st4 st5">2017</text>
<text transform="matrix(1 0 0 1 485.1709 506.4335)" class="st7 st4 st5">2019</text>
<text transform="matrix(1 0 0 1 596.4662 506.4335)" class="st7 st4 st5">2021</text>
<text transform="matrix(1 0 0 1 707.6088 506.4335)" class="st7 st4 st5">2023</text>
<g id="_x32_011-0-svg" transform="translate(20.48298, 0)">
</g>
<g id="_x32_012-1-svg" transform="translate(64.83239, 0)">
</g>
<g id="_x32_013-2-svg" transform="translate(109.30331, 0)">
</g>
<g id="_x32_014-3-svg" transform="translate(153.65273, 0)">
</g>
<g id="_x32_015-4-svg" transform="translate(198.00214, 0)">
</g>
<g id="_x32_016-5-svg" transform="translate(242.35155, 0)">
</g>
<g id="_x32_017-6-svg" transform="translate(286.82247, 0)">
</g>
<g id="_x32_018-7-svg" transform="translate(331.17188, 0)">
</g>
<g id="_x32_019-8-svg" transform="translate(375.5213, 0)">
</g>
<g id="_x32_020-9-svg" transform="translate(419.87071, 0)">
</g>
<g id="_x32_021-10-svg" transform="translate(464.34163, 0)">
</g>
<g id="_x32_022-11-svg" transform="translate(508.69104, 0)">
</g>
<g id="_x32_023-12-svg" transform="translate(553.04046, 0)">
</g>
<text transform="matrix(1 0 0 1 302.8561 66.9066)"><tspan x="0" y="0" class="st4 st8">The number of videos with titles contained </tspan><tspan x="60.5" y="18" class="st4 st8">“Dumpster Diving” peaked in 2023</tspan></text>
<line class="st9" x1="608.8" y1="91.3" x2="703.3" y2="143.1"/>
<text transform="matrix(1 0 0 1 52.5702 470.7403)" class="st4 st8">2</text>
<text transform="matrix(1 0 0 1 710.9866 66.9068)" class="st4 st8">141</text>
</svg>
