<?xml version="1.0" encoding="utf-8"?>
<!-- Generator: Adobe Illustrator 28.3.0, SVG Export Plug-In . SVG Version: 6.00 Build 0)  -->
<svg version="1.1" id="exportSvg" xmlns="http://www.w3.org/2000/svg" xmlns:xlink="http://www.w3.org/1999/xlink" x="0px" y="0px"
	 viewBox="0 0 375 261.8" style="enable-background:new 0 0 375 261.8;" xml:space="preserve">
<style type="text/css">
	.st0{fill:none;stroke:#E7E7E7;}
	.st1{fill:none;stroke:#000000;stroke-width:0.75;stroke-miterlimit:10;}
	.st2{fill:none;stroke:#181818;stroke-linecap:square;}
	.st3{fill:#747474;}
	.st4{font-family:'ArialMT';}
	.st5{font-size:9.2152px;}
	.st6{font-family:'Arial-BoldMT';}
	.st7{font-size:11.1899px;}
	.st8{fill:#A2A2A2;}
	.st9{font-size:10.5317px;}
</style>
<g id="_x32_011-0-svg" transform="translate(20.48298, 0)">
</g>
<g id="_x32_012-1-svg" transform="translate(64.83239, 0)">
</g>
<g id="_x32_013-2-svg" transform="translate(109.30331, 0)">
</g>
<g id="_x32_014-3-svg" transform="translate(153.65273, 0)">
</g>
<g id="_x32_015-4-svg" transform="translate(198.00214, 0)">
</g>
<g id="_x32_016-5-svg" transform="translate(242.35155, 0)">
</g>
<g id="_x32_017-6-svg" transform="translate(286.82247, 0)">
</g>
<g id="_x32_018-7-svg" transform="translate(331.17188, 0)">
</g>
<g id="_x32_019-8-svg" transform="translate(375.5213, 0)">
</g>
<g id="_x32_020-9-svg" transform="translate(419.87071, 0)">
</g>
<g id="_x32_021-10-svg" transform="translate(464.34163, 0)">
</g>
<g id="_x32_022-11-svg" transform="translate(508.69104, 0)">
</g>
<g id="_x32_023-12-svg" transform="translate(553.04046, 0)">
</g>
<line class="st0" x1="-1504.3" y1="349.3" x2="-1504.3" y2="-18.1"/>
<line class="st0" x1="-1468.7" y1="349.3" x2="-1468.7" y2="-18.1"/>
<line class="st0" x1="-1433.1" y1="349.3" x2="-1433.1" y2="-18.1"/>
<line class="st0" x1="-1397.5" y1="349.3" x2="-1397.5" y2="-18.1"/>
<line class="st0" x1="-1219.4" y1="349.3" x2="-1219.4" y2="-18.1"/>
<line class="st0" x1="-1148.2" y1="349.3" x2="-1148.2" y2="-18.1"/>
<line class="st0" x1="-1077" y1="349.3" x2="-1077" y2="-18.1"/>
<line class="st0" x1="-1361.9" y1="349.3" x2="-1361.9" y2="-18.1"/>
<line class="st0" x1="-1290.6" y1="349.3" x2="-1290.6" y2="-18.1"/>
<g>
	<g>
		<path class="st1" d="M-1070,154.2c2.6-5.2,7.1-15.3,10.1-28.3c7.3-31.3-4.5-63.5-30.3-84.2"/>
		<g>
			<path d="M-1072.1,158.2c1.7-1.5,4.1-3.3,6.1-4.1l-3.8-0.5l-2.6-2.8C-1071.8,153-1071.8,155.9-1072.1,158.2z"/>
		</g>
	</g>
</g>
<line class="st2" x1="-998.5" y1="349.8" x2="-1538.6" y2="349.8"/>
<text transform="matrix(1.0913 0 0 1 -1583.8589 326.5454)" class="st3 st4" style="font-size:14px;">2017</text>
<text transform="matrix(1.0913 0 0 1 -1583.8589 225.1611)" class="st3 st4" style="font-size:14px;">2019</text>
<text transform="matrix(1.0913 0 0 1 -1583.8589 123.7773)" class="st3 st4" style="font-size:14px;">2021</text>
<text transform="matrix(1.0913 0 0 1 -1583.8589 22.3926)" class="st3 st4" style="font-size:14px;">2023</text>
<text transform="matrix(1.0913 0 0 1 -1029.5225 22.9189)" class="st6" style="font-size:17px;">141</text>
<g>
	<g>
		<path d="M-1165.3,186.7l-3.3-13.1h1.6l1.5,6.2c0.4,1.8,1,4.1,1.1,5.4l0,0c0.2-1.1,0.8-3.5,1.3-5.4l1.5-6.2h1.5l-3.5,13.1H-1165.3z
			"/>
		<path d="M-1158.7,176.9h1.5v9.8h-1.5V176.9z M-1158.7,172.9h1.5v2h-1.5V172.9z"/>
		<path d="M-1148.6,172.9v11.2c0,0.9,0,1.9,0,2.5h-1.4c0-0.2-0.1-0.9-0.1-1.3c-0.3,0.8-1,1.5-2.4,1.5c-2.1,0-3-1.7-3-5.2
			c0-3.1,1.2-4.9,3.3-4.9c1.3,0,1.8,0.5,2,1v-4.8H-1148.6z M-1153.9,181.7c0,2.8,0.7,3.9,1.9,3.9c1.6,0,2-1.3,2-3.9
			c0-2.8-0.4-3.7-1.9-3.7C-1153,178-1153.9,179-1153.9,181.7z"/>
		<path d="M-1145.2,182c0,1.9,0.3,3.6,1.9,3.6s1.8-1.5,1.8-1.7h1.4c0,0.3-0.3,3-3.3,3s-3.4-2.6-3.4-5.1c0-3.1,1.1-5,3.5-5
			c2.7,0,3.3,2.1,3.3,4.6c0,0.2,0,0.5,0,0.8h-5.2V182z M-1141.4,180.9c0-1.7-0.4-3-1.8-3c-1.8,0-1.9,2.3-2,3H-1141.4z"/>
		<path d="M-1131.7,181.7c0,3.4-1.2,5.2-3.5,5.2s-3.5-1.7-3.5-5.1c0-3.4,1.4-5,3.5-5C-1132.9,176.7-1131.7,178.4-1131.7,181.7z
			 M-1137.1,181.7c0,2.7,0.7,3.9,2,3.9s2-1.3,2-3.9c0-2.5-0.6-3.7-2-3.7C-1136.4,178-1137.1,179.1-1137.1,181.7z"/>
		<path d="M-1127.2,176.9h1.4v-2.6h1.4v2.6h1.8v1.2h-1.8v6.4c0,0.7,0.2,1.1,0.9,1.1c0.2,0,0.5,0,0.7-0.1v1.1
			c-0.3,0.1-0.9,0.2-1.2,0.2c-1.2,0-1.9-0.5-1.9-2v-6.7h-1.4L-1127.2,176.9L-1127.2,176.9z"/>
		<path d="M-1121.2,176.9h1.5v9.8h-1.5V176.9z M-1121.2,172.9h1.5v2h-1.5V172.9z"/>
		<path d="M-1118.6,176.9h1.4v-2.6h1.4v2.6h1.8v1.2h-1.8v6.4c0,0.7,0.2,1.1,0.9,1.1c0.2,0,0.5,0,0.7-0.1v1.1
			c-0.3,0.1-0.9,0.2-1.2,0.2c-1.2,0-1.9-0.5-1.9-2v-6.7h-1.4L-1118.6,176.9L-1118.6,176.9z"/>
		<path d="M-1112.6,186.7V173h1.5v13.7H-1112.6z"/>
		<path d="M-1107.8,182c0,1.9,0.3,3.6,1.9,3.6s1.8-1.5,1.8-1.7h1.4c0,0.3-0.3,3-3.3,3s-3.4-2.6-3.4-5.1c0-3.1,1.1-5,3.5-5
			c2.7,0,3.3,2.1,3.3,4.6c0,0.2,0,0.5,0,0.8h-5.2V182z M-1104,180.9c0-1.7-0.4-3-1.8-3c-1.8,0-1.9,2.3-2,3H-1104z"/>
		<path d="M-1100,183.8c0.1,1,0.6,1.8,1.8,1.8c1.1,0,1.6-0.6,1.6-1.5c0-1-0.5-1.5-1.9-2c-2.1-0.8-2.7-1.5-2.7-2.9
			c0-1.3,0.8-2.6,2.9-2.6c2.3,0,2.9,1.5,2.9,2.8h-1.4c0-0.5-0.1-1.6-1.5-1.6c-1,0-1.4,0.6-1.4,1.3c0,0.8,0.4,1.2,1.8,1.7
			c1.9,0.7,2.8,1.4,2.8,3.1c0,1.8-1.2,2.8-3.2,2.8c-2.1,0-3.1-1.2-3.2-3L-1100,183.8L-1100,183.8z"/>
		<path d="M-1083.4,183.7c0,0.5-0.3,3.2-3.2,3.2c-2.6,0-3.3-2.3-3.3-5.1c0-2.7,0.9-5,3.5-5c2.9,0,3.1,2.6,3.1,3.1h-1.5
			c0-0.4-0.2-1.9-1.6-1.9c-1.5,0-2,1.5-2,3.8c0,2.4,0.5,3.9,1.9,3.9c1.5,0,1.6-1.4,1.7-1.9h1.4V183.7z"/>
		<path d="M-1075.3,181.7c0,3.4-1.2,5.2-3.5,5.2s-3.5-1.7-3.5-5.1c0-3.4,1.4-5,3.5-5C-1076.5,176.7-1075.3,178.4-1075.3,181.7z
			 M-1080.7,181.7c0,2.7,0.7,3.9,2,3.9s2-1.3,2-3.9c0-2.5-0.6-3.7-2-3.7C-1080,178-1080.7,179.1-1080.7,181.7z"/>
		<path d="M-1073.4,179.9c0-2,0-2.6,0-3h1.4c0,0.2,0.1,0.6,0.1,1.3c0.3-0.8,1-1.4,2.4-1.4c1.5,0,2.6,0.8,2.6,3v7h-1.5V180
			c0-1.2-0.4-2-1.5-2c-1.4,0-1.9,0.9-1.9,2.9v5.8h-1.5L-1073.4,179.9L-1073.4,179.9z"/>
		<path d="M-1065.8,176.9h1.4v-2.6h1.4v2.6h1.8v1.2h-1.8v6.4c0,0.7,0.2,1.1,0.9,1.1c0.2,0,0.5,0,0.7-0.1v1.1
			c-0.3,0.1-0.9,0.2-1.2,0.2c-1.2,0-1.9-0.5-1.9-2v-6.7h-1.4L-1065.8,176.9L-1065.8,176.9z"/>
		<path d="M-1054,184.9c0,0.6,0.1,1.4,0.1,1.7h-1.3c-0.1-0.2-0.1-0.7-0.1-1.1c-0.4,0.8-1.1,1.3-2.4,1.3c-1.9,0-2.6-1.5-2.6-2.8
			c0-1.8,1.2-3.1,3.9-3.1c0.5,0,0.8,0,1.1,0v-1.3c0-0.8-0.1-1.7-1.5-1.7c-1.5,0-1.6,1-1.6,1.7h-1.4c0-1.4,0.7-2.8,3.1-2.8
			c2,0,2.9,0.9,2.9,2.7v5.4H-1054z M-1055.4,182c-0.3,0-0.5-0.1-1-0.1c-1.8,0-2.5,0.8-2.5,1.9c0,0.9,0.5,1.7,1.6,1.7
			c1.5,0,2-1,2-3.1L-1055.4,182L-1055.4,182z"/>
		<path d="M-1051.6,176.9h1.5v9.8h-1.5V176.9z M-1051.6,172.9h1.5v2h-1.5V172.9z"/>
		<path d="M-1047.7,179.9c0-2,0-2.6,0-3h1.4c0,0.2,0.1,0.6,0.1,1.3c0.3-0.8,1-1.4,2.4-1.4c1.5,0,2.6,0.8,2.6,3v7h-1.5V180
			c0-1.2-0.4-2-1.5-2c-1.4,0-1.9,0.9-1.9,2.9v5.8h-1.5L-1047.7,179.9L-1047.7,179.9z"/>
		<path d="M-1037.9,182c0,1.9,0.3,3.6,1.9,3.6s1.8-1.5,1.8-1.7h1.4c0,0.3-0.3,3-3.3,3s-3.4-2.6-3.4-5.1c0-3.1,1.1-5,3.5-5
			c2.7,0,3.3,2.1,3.3,4.6c0,0.2,0,0.5,0,0.8h-5.2V182z M-1034.1,180.9c0-1.7-0.4-3-1.8-3c-1.8,0-1.9,2.3-2,3H-1034.1z"/>
		<path d="M-1024.5,172.9v11.2c0,0.9,0,1.9,0,2.5h-1.4c0-0.2-0.1-0.9-0.1-1.3c-0.3,0.8-1,1.5-2.4,1.5c-2.1,0-3-1.7-3-5.2
			c0-3.1,1.2-4.9,3.3-4.9c1.3,0,1.8,0.5,2,1v-4.8H-1024.5z M-1029.8,181.7c0,2.8,0.7,3.9,1.9,3.9c1.6,0,2-1.3,2-3.9
			c0-2.8-0.4-3.7-1.9-3.7C-1029,178-1029.8,179-1029.8,181.7z"/>
		<path d="M-1236.1,196c-0.4,1.2-0.7,3.1-0.7,4.4h-1.3c0-1.6,0.5-3.6,0.9-4.4H-1236.1z M-1233.7,196c-0.4,1.3-0.7,3-0.7,4.4h-1.3
			c0-1.7,0.5-3.5,0.9-4.4H-1233.7z"/>
		<path d="M-1232,196.7h3c3.1,0,4.5,2.1,4.5,6.2c0,4.4-1.3,6.9-4.7,6.9h-2.8V196.7z M-1230.5,208.5h1.2c2.5,0,3.3-1.9,3.3-5.6
			c0-3.5-0.9-5-3.2-5h-1.3V208.5z"/>
		<path d="M-1216.2,207.1c0,1.2,0,2.2,0,2.7h-1.4c0-0.3-0.1-0.7-0.1-1.3c-0.4,1-1.2,1.5-2.4,1.5c-1.2,0-2.5-0.5-2.5-2.9v-7h1.5v6.7
			c0,1.2,0.4,2,1.5,2s1.9-0.7,1.9-2.8v-6h1.5V207.1z"/>
		<path d="M-1213.8,202.9c0-1.7,0-2.5,0-2.9h1.4c0,0.3,0.1,0.8,0.1,1.2c0.4-0.9,1.1-1.4,2.3-1.4c1.1,0,1.8,0.4,2.1,1.5
			c0.4-0.8,1.1-1.5,2.4-1.5s2.4,0.6,2.4,2.8v7.1h-1.4v-6.8c0-1-0.3-1.8-1.4-1.8c-1.3,0-1.7,1.1-1.7,2.4v6.3h-1.4V203
			c0-1.2-0.4-1.9-1.4-1.9c-1.2,0-1.8,1.1-1.8,2.5v6.1h-1.4v-6.8H-1213.8z"/>
		<path d="M-1199.3,208.8v4.6h-1.5v-10.5c0-1.3,0-2.2,0-2.9h1.4c0,0.2,0.1,0.8,0.1,1.3c0.4-0.8,1.1-1.5,2.4-1.5
			c1.9,0,2.9,1.6,2.9,4.9c0,3.5-1.3,5.2-3.2,5.2C-1198.4,209.9-1199,209.4-1199.3,208.8z M-1195.5,204.8c0-2.5-0.6-3.7-1.9-3.7
			c-1.6,0-2,1.4-2,3.7s0.2,3.9,1.9,3.9C-1196.1,208.7-1195.5,207.2-1195.5,204.8z"/>
		<path d="M-1191.4,207c0.1,1,0.6,1.8,1.8,1.8c1.1,0,1.6-0.6,1.6-1.5c0-1-0.5-1.5-1.9-2c-2.1-0.8-2.7-1.5-2.7-2.9
			c0-1.3,0.8-2.6,2.9-2.6c2.3,0,2.9,1.5,2.9,2.8h-1.4c0-0.5-0.1-1.6-1.5-1.6c-1,0-1.4,0.6-1.4,1.3c0,0.8,0.4,1.2,1.8,1.7
			c1.9,0.7,2.8,1.4,2.8,3.1c0,1.8-1.2,2.8-3.2,2.8c-2.1,0-3.1-1.2-3.2-3L-1191.4,207L-1191.4,207z"/>
		<path d="M-1186,200h1.4v-2.6h1.4v2.6h1.8v1.2h-1.8v6.4c0,0.7,0.2,1.1,0.9,1.1c0.2,0,0.5,0,0.7-0.1v1.1c-0.3,0.1-0.9,0.2-1.2,0.2
			c-1.2,0-1.9-0.5-1.9-2v-6.7h-1.4L-1186,200L-1186,200z"/>
		<path d="M-1179,205.1c0,1.9,0.3,3.6,1.9,3.6s1.8-1.5,1.8-1.7h1.4c0,0.3-0.3,3-3.3,3s-3.4-2.6-3.4-5.1c0-3.1,1.1-5,3.5-5
			c2.7,0,3.3,2.1,3.3,4.6c0,0.2,0,0.5,0,0.8h-5.2V205.1z M-1175.2,204c0-1.7-0.4-3-1.8-3c-1.8,0-1.9,2.3-2,3H-1175.2z"/>
		<path d="M-1171.9,203.3c0-1.6,0-2.6,0-3.3h1.4c0,0.3,0,0.7,0,1.7c0.4-1.2,1.4-1.9,2.7-1.9v1.6c-1.7,0.1-2.6,1.1-2.6,2.9v5.5h-1.5
			V203.3z"/>
		<path d="M-1162.4,196.7h3c3.1,0,4.5,2.1,4.5,6.2c0,4.4-1.3,6.9-4.7,6.9h-2.8V196.7z M-1160.9,208.5h1.2c2.5,0,3.3-1.9,3.3-5.6
			c0-3.5-0.9-5-3.2-5h-1.3V208.5z"/>
		<path d="M-1152.4,200c0.8,3.2,1.8,7,2,8.2l0,0c0.1-1.1,1.6-6.2,2.1-8.2h1.5l-2.9,9.8h-1.6l-2.7-9.8H-1152.4z"/>
		<path d="M-1145.3,200h1.5v9.8h-1.5V200z M-1145.3,196.1h1.5v2h-1.5V196.1z"/>
		<path d="M-1141.5,203c0-2,0-2.6,0-3h1.4c0,0.2,0.1,0.6,0.1,1.3c0.3-0.8,1-1.4,2.4-1.4c1.5,0,2.6,0.8,2.6,3v7h-1.5v-6.7
			c0-1.2-0.4-2-1.5-2c-1.4,0-1.9,0.9-1.9,2.9v5.8h-1.5L-1141.5,203L-1141.5,203z"/>
		<path d="M-1126.4,209.1c0,2.6-0.6,4.4-3.5,4.4c-2.6,0-3.2-1.6-3.2-2.7h1.5c0,0.5,0.4,1.5,1.8,1.5c1.7,0,2-1.2,2-3.2v-0.9
			c-0.4,1-1.2,1.5-2.3,1.5c-2,0-3-1.7-3-4.7c0-3.5,1.3-5.2,3.3-5.2c1.4,0,1.9,0.6,2.1,1.3c0-0.4,0-0.9,0.1-1.1h1.4
			c0,0.5,0,1.5,0,2.8v6.3H-1126.4z M-1131.7,205c0,2.4,0.7,3.5,1.9,3.5c1.6,0,2-1.5,2-3.8s-0.3-3.6-1.9-3.6
			C-1131,201.1-1131.7,202.4-1131.7,205z"/>
		<path d="M-1124.8,200.5c0.4-1.3,0.7-3,0.7-4.4h1.3c0,1.7-0.5,3.5-0.9,4.4H-1124.8z M-1122.4,200.5c0.4-1.2,0.7-3.1,0.7-4.4h1.3
			c0,1.6-0.5,3.6-0.9,4.4H-1122.4z"/>
		<path d="M-1114.2,207c0.1,1,0.6,1.8,1.8,1.8c1.1,0,1.6-0.6,1.6-1.5c0-1-0.5-1.5-1.9-2c-2.1-0.8-2.7-1.5-2.7-2.9
			c0-1.3,0.8-2.6,2.9-2.6c2.3,0,2.9,1.5,2.9,2.8h-1.4c0-0.5-0.1-1.6-1.5-1.6c-1,0-1.4,0.6-1.4,1.3c0,0.8,0.4,1.2,1.8,1.7
			c1.9,0.7,2.8,1.4,2.8,3.1c0,1.8-1.2,2.8-3.2,2.8c-2.1,0-3.1-1.2-3.2-3L-1114.2,207L-1114.2,207z"/>
		<path d="M-1106.1,208.8v4.6h-1.5v-10.5c0-1.3,0-2.2,0-2.9h1.4c0,0.2,0.1,0.8,0.1,1.3c0.4-0.8,1.1-1.5,2.4-1.5
			c1.9,0,2.9,1.6,2.9,4.9c0,3.5-1.3,5.2-3.2,5.2C-1105.2,209.9-1105.8,209.4-1106.1,208.8z M-1102.3,204.8c0-2.5-0.6-3.7-1.9-3.7
			c-1.6,0-2,1.4-2,3.7s0.2,3.9,1.9,3.9C-1103,208.7-1102.3,207.2-1102.3,204.8z"/>
		<path d="M-1098.9,200h1.5v9.8h-1.5V200z M-1098.9,196.1h1.5v2h-1.5V196.1z"/>
		<path d="M-1093.6,204.6c0.6-1,2.4-3.3,3.3-4.6h1.6c-0.9,1.2-1.9,2.5-2.8,3.7l3.1,6h-1.7l-2.4-4.9c-0.3,0.4-0.8,1.1-1.1,1.4v3.5
			h-1.5V196h1.5V204.6z"/>
		<path d="M-1086.4,205.1c0,1.9,0.3,3.6,1.9,3.6s1.8-1.5,1.8-1.7h1.4c0,0.3-0.3,3-3.3,3s-3.4-2.6-3.4-5.1c0-3.1,1.1-5,3.5-5
			c2.7,0,3.3,2.1,3.3,4.6c0,0.2,0,0.5,0,0.8h-5.2V205.1z M-1082.6,204c0-1.7-0.4-3-1.8-3c-1.8,0-1.9,2.3-2,3H-1082.6z"/>
		<path d="M-1073,196.1v11.2c0,0.9,0,1.9,0,2.5h-1.4c0-0.2-0.1-0.9-0.1-1.3c-0.3,0.8-1,1.5-2.4,1.5c-2.1,0-3-1.7-3-5.2
			c0-3.1,1.2-4.9,3.3-4.9c1.3,0,1.8,0.5,2,1v-4.8H-1073z M-1078.3,204.8c0,2.8,0.7,3.9,1.9,3.9c1.6,0,2-1.3,2-3.9
			c0-2.8-0.4-3.7-1.9-3.7C-1077.5,201.1-1078.3,202.1-1078.3,204.8z"/>
		<path d="M-1066.8,200h1.5v9.8h-1.5V200z M-1066.8,196.1h1.5v2h-1.5V196.1z"/>
		<path d="M-1063,203c0-2,0-2.6,0-3h1.4c0,0.2,0.1,0.6,0.1,1.3c0.3-0.8,1-1.4,2.4-1.4c1.5,0,2.6,0.8,2.6,3v7h-1.5v-6.7
			c0-1.2-0.4-2-1.5-2c-1.4,0-1.9,0.9-1.9,2.9v5.8h-1.5L-1063,203L-1063,203z"/>
		<path d="M-1051.1,209.8L-1051.1,209.8c0-1.7,0.9-3.4,3-5.6c1.7-1.8,2.2-2.4,2.2-3.9c0-1.1-0.3-2.2-1.7-2.2c-1.2,0-1.8,0.9-1.8,2.4
			h-1.4c0-1.9,0.9-3.6,3.3-3.6s3.2,1.5,3.2,3.4c0,1.7-0.6,2.6-2.3,4.4c-1.6,1.6-2.4,2.9-2.6,3.8h5.3l-0.2,1.2h-7V209.8z"/>
		<path d="M-1036.1,203.3c0,4.6-0.9,6.7-3.5,6.7s-3.4-2.2-3.4-6.7c0-4.8,1.3-6.4,3.5-6.4C-1037.1,196.9-1036.1,198.7-1036.1,203.3z
			 M-1041.5,203.2c0,3.6,0.4,5.5,2,5.5s2-1.8,2-5.5c0-3.8-0.5-5.1-1.9-5.1C-1040.9,198.1-1041.5,199.4-1041.5,203.2z"/>
		<path d="M-1034.8,209.8L-1034.8,209.8c0-1.7,0.9-3.4,3-5.6c1.7-1.8,2.2-2.4,2.2-3.9c0-1.1-0.3-2.2-1.7-2.2c-1.2,0-1.8,0.9-1.8,2.4
			h-1.4c0-1.9,0.9-3.6,3.3-3.6s3.2,1.5,3.2,3.4c0,1.7-0.6,2.6-2.3,4.4c-1.6,1.6-2.4,2.9-2.6,3.8h5.3l-0.2,1.2h-7V209.8z"/>
		<path d="M-1026.7,200.1c0-1.3,0.7-3.2,3.1-3.2c2.2,0,3,1.4,3,3.2c0,1.6-0.7,2.4-1.6,2.7l0,0c1.2,0.4,2,1.3,2,3.2s-0.8,3.9-3.5,3.9
			c-2.4,0-3.3-1.6-3.3-3.3h1.4c0,1,0.5,2.1,1.9,2.1c1.6,0,2-1.4,2-2.7c0-2.1-1-2.6-2.4-2.6h-0.6v-1.2h0.6c1.3,0,2.1-0.5,2.1-2.2
			c0-1.2-0.4-2-1.6-2c-1.5,0-1.7,1.4-1.7,2h-1.4V200.1z"/>
	</g>
</g>
<text transform="matrix(1.0913 0 0 1 -1478.5518 368.8013)" class="st8 st4" style="font-size:14px;">20</text>
<text transform="matrix(1.0913 0 0 1 -1442.9424 368.8022)" class="st8 st4" style="font-size:14px;">30</text>
<text transform="matrix(1.0913 0 0 1 -1407.3301 368.8013)" class="st8 st4" style="font-size:14px;">40</text>
<text transform="matrix(1.0913 0 0 1 -1300.4971 368.8013)" class="st8 st4" style="font-size:14px;">70</text>
<text transform="matrix(1.0913 0 0 1 -1371.7197 368.8022)" class="st8 st4" style="font-size:14px;">50</text>
<text transform="matrix(1.0913 0 0 1 -1229.2734 368.8022)" class="st8 st4" style="font-size:14px;">90</text>
<text transform="matrix(1.0913 0 0 1 -1162.7588 368.8013)" class="st8 st4" style="font-size:14px;">110</text>
<text transform="matrix(1.0913 0 0 1 -1092.2617 368.8013)" class="st8 st4" style="font-size:14px;">130 counts</text>
<text transform="matrix(1.0913 0 0 1 -1514.1631 368.8013)" class="st8 st4" style="font-size:14px;">10</text>
<text transform="matrix(1.0913 0 0 1 -1493.1919 330.7598)" class="st4" style="font-size:16px;">12</text>
<g>
	<g>
		<g>
			
				<image style="overflow:visible;enable-background:new    ;" width="51" height="51" xlink:href="5775A62A0D69B917.png"  transform="matrix(0.9804 0 0 0.9804 -1544.3987 -6.493)">
			</image>
		</g>
		<g>
			
				<image style="overflow:visible;enable-background:new    ;" width="51" height="51" xlink:href="5775A62A0D69B915.png"  transform="matrix(0.9804 0 0 0.9804 -1508.3987 -6.493)">
			</image>
		</g>
		<g>
			
				<image style="overflow:visible;enable-background:new    ;" width="51" height="51" xlink:href="5775A62A0D69B91B.png"  transform="matrix(0.9804 0 0 0.9804 -1473.3987 -6.493)">
			</image>
		</g>
		<g>
			
				<image style="overflow:visible;enable-background:new    ;" width="51" height="51" xlink:href="5775A62A0D69B91D.png"  transform="matrix(0.9804 0 0 0.9804 -1437.3987 -6.493)">
			</image>
		</g>
		<g>
			
				<image style="overflow:visible;enable-background:new    ;" width="51" height="51" xlink:href="5775A62A0D69B91F.png"  transform="matrix(0.9804 0 0 0.9804 -1402.3987 -6.493)">
			</image>
		</g>
		<g>
			
				<image style="overflow:visible;enable-background:new    ;" width="51" height="51" xlink:href="5775A62A0D69B91C.png"  transform="matrix(0.9804 0 0 0.9804 -1366.3987 -6.493)">
			</image>
		</g>
		<g>
			
				<image style="overflow:visible;enable-background:new    ;" width="51" height="51" xlink:href="5775A62A0D69B914.png"  transform="matrix(0.9804 0 0 0.9804 -1331.3987 -6.493)">
			</image>
		</g>
		<g>
			
				<image style="overflow:visible;enable-background:new    ;" width="51" height="51" xlink:href="5775A62A0D69B916.png"  transform="matrix(0.9804 0 0 0.9804 -1295.3987 -6.493)">
			</image>
		</g>
		<g>
			
				<image style="overflow:visible;enable-background:new    ;" width="51" height="51" xlink:href="5775A62A0D69B912.png"  transform="matrix(0.9804 0 0 0.9804 -1260.3987 -6.493)">
			</image>
		</g>
		<g>
			
				<image style="overflow:visible;enable-background:new    ;" width="51" height="51" xlink:href="A4010413F047C054.png"  transform="matrix(0.9804 0 0 0.9804 -1224.3987 -6.493)">
			</image>
		</g>
		<g>
			
				<image style="overflow:visible;enable-background:new    ;" width="51" height="51" xlink:href="A4010413F047C053.png"  transform="matrix(0.9804 0 0 0.9804 -1189.3987 -6.493)">
			</image>
		</g>
		<g>
			
				<image style="overflow:visible;enable-background:new    ;" width="51" height="51" xlink:href="A4010413F047C06C.png"  transform="matrix(0.9804 0 0 0.9804 -1153.3987 -6.493)">
			</image>
		</g>
		<g>
			
				<image style="overflow:visible;enable-background:new    ;" width="51" height="51" xlink:href="A4010413F047C06F.png"  transform="matrix(0.9804 0 0 0.9804 -1118.3987 -6.493)">
			</image>
		</g>
		<g>
			
				<image style="overflow:visible;enable-background:new    ;" width="51" height="51" xlink:href="A4010413F047C06D.png"  transform="matrix(0.9804 0 0 0.9804 -1082.3987 -6.493)">
			</image>
		</g>
	</g>
</g>
<g>
	<g>
		<g>
			
				<image style="overflow:visible;enable-background:new    ;" width="51" height="51" xlink:href="A4010413F047C073.png"  transform="matrix(0.9804 0 0 0.9804 -1543.6111 44.1496)">
			</image>
		</g>
		<g>
			
				<image style="overflow:visible;enable-background:new    ;" width="51" height="51" xlink:href="A4010413F047C074.png"  transform="matrix(0.9804 0 0 0.9804 -1508.6111 44.1496)">
			</image>
		</g>
		<g>
			
				<image style="overflow:visible;enable-background:new    ;" width="51" height="51" xlink:href="A4010413F047C077.png"  transform="matrix(0.9804 0 0 0.9804 -1472.6111 44.1496)">
			</image>
		</g>
		<g>
			
				<image style="overflow:visible;enable-background:new    ;" width="51" height="51" xlink:href="A4010413F047C075.png"  transform="matrix(0.9804 0 0 0.9804 -1437.6111 44.1496)">
			</image>
		</g>
		<g>
			
				<image style="overflow:visible;enable-background:new    ;" width="51" height="51" xlink:href="A4010413F047C072.png"  transform="matrix(0.9804 0 0 0.9804 -1401.6111 44.1496)">
			</image>
		</g>
		<g>
			
				<image style="overflow:visible;enable-background:new    ;" width="51" height="51" xlink:href="A4010413F047C097.png"  transform="matrix(0.9804 0 0 0.9804 -1366.6111 44.1496)">
			</image>
		</g>
		<g>
			
				<image style="overflow:visible;enable-background:new    ;" width="51" height="51" xlink:href="A4010413F047C091.png"  transform="matrix(0.9804 0 0 0.9804 -1330.6111 44.1496)">
			</image>
		</g>
		<g>
			
				<image style="overflow:visible;enable-background:new    ;" width="51" height="51" xlink:href="A4010413F047C093.png"  transform="matrix(0.9804 0 0 0.9804 -1295.6111 44.1496)">
			</image>
		</g>
		<g>
			
				<image style="overflow:visible;enable-background:new    ;" width="51" height="51" xlink:href="A4010413F047C09E.png"  transform="matrix(0.9804 0 0 0.9804 -1260.6111 44.1496)">
			</image>
		</g>
		<g>
			
				<image style="overflow:visible;enable-background:new    ;" width="51" height="51" xlink:href="A4010413F047C09F.png"  transform="matrix(0.9804 0 0 0.9804 -1224.6111 44.1496)">
			</image>
		</g>
		<g>
			
				<image style="overflow:visible;enable-background:new    ;" width="51" height="51" xlink:href="A4010413F047C092.png"  transform="matrix(0.9804 0 0 0.9804 -1189.6111 44.1496)">
			</image>
		</g>
	</g>
</g>
<g>
	<g>
		<g>
			
				<image style="overflow:visible;enable-background:new    ;" width="51" height="51" xlink:href="A4010413F047C095.png"  transform="matrix(0.9804 0 0 0.9804 -1543.7737 94.4738)">
			</image>
		</g>
		<g>
			
				<image style="overflow:visible;enable-background:new    ;" width="51" height="51" xlink:href="A4010413F047C096.png"  transform="matrix(0.9804 0 0 0.9804 -1508.7737 94.4738)">
			</image>
		</g>
		<g>
			
				<image style="overflow:visible;enable-background:new    ;" width="51" height="51" xlink:href="A4010413F047C094.png"  transform="matrix(0.9804 0 0 0.9804 -1472.7737 94.4738)">
			</image>
		</g>
		<g>
			
				<image style="overflow:visible;enable-background:new    ;" width="51" height="51" xlink:href="A4010413F047C0AC.png"  transform="matrix(0.9804 0 0 0.9804 -1437.7737 94.4738)">
			</image>
		</g>
	</g>
</g>
<g>
	<g>
		<g>
			
				<image style="overflow:visible;enable-background:new    ;" width="51" height="51" xlink:href="A4010413F047C0B6.png"  transform="matrix(0.9804 0 0 0.9804 -1543.7737 145.0949)">
			</image>
		</g>
		<g>
			
				<image style="overflow:visible;enable-background:new    ;" width="51" height="51" xlink:href="A4010413F047C089.png"  transform="matrix(0.9804 0 0 0.9804 -1508.7737 145.0949)">
			</image>
		</g>
		<g>
			
				<image style="overflow:visible;enable-background:new    ;" width="51" height="51" xlink:href="A4010413F047C08A.png"  transform="matrix(0.9804 0 0 0.9804 -1472.7737 145.0949)">
			</image>
		</g>
		<g>
			
				<image style="overflow:visible;enable-background:new    ;" width="51" height="51" xlink:href="A4010413F047C088.png"  transform="matrix(0.9804 0 0 0.9804 -1437.7737 145.0949)">
			</image>
		</g>
	</g>
</g>
<g>
	<g>
		<g>
			
				<image style="overflow:visible;enable-background:new    ;" width="51" height="51" xlink:href="A4010413F047C08E.png"  transform="matrix(0.9804 0 0 0.9804 -1543.511 196.5685)">
			</image>
		</g>
		<g>
			
				<image style="overflow:visible;enable-background:new    ;" width="51" height="51" xlink:href="A4010413F047C08B.png"  transform="matrix(0.9804 0 0 0.9804 -1508.511 196.5685)">
			</image>
		</g>
		<g>
			
				<image style="overflow:visible;enable-background:new    ;" width="51" height="51" xlink:href="A4010413F047C086.png"  transform="matrix(0.9804 0 0 0.9804 -1472.511 196.5685)">
			</image>
		</g>
	</g>
</g>
<g>
	<g>
		<g>
			
				<image style="overflow:visible;enable-background:new    ;" width="51" height="51" xlink:href="A4010413F047C087.png"  transform="matrix(0.9804 0 0 0.9804 -1544.2488 247.2541)">
			</image>
		</g>
		<g>
			
				<image style="overflow:visible;enable-background:new    ;" width="51" height="51" xlink:href="A4010413F047C098.png"  transform="matrix(0.9804 0 0 0.9804 -1508.2488 247.2541)">
			</image>
		</g>
	</g>
</g>
<g>
	<g>
		<g>
			
				<image style="overflow:visible;enable-background:new    ;" width="51" height="51" xlink:href="A4010413F047C099.png"  transform="matrix(0.9804 0 0 0.9804 -1543.9861 295.7668)">
			</image>
		</g>
	</g>
</g>
<text transform="matrix(1.0913 0 0 1 -1583.8589 73.085)" class="st3 st4" style="font-size:14px;">2022</text>
<text transform="matrix(1.0913 0 0 1 -1583.8594 275.853)" class="st3 st4" style="font-size:14px;">2018</text>
<text transform="matrix(1.0913 0 0 1 -1583.8594 174.4688)" class="st3 st4" style="font-size:14px;">2020</text>
<line class="st0" x1="-665.7" y1="415.1" x2="-665.7" y2="112.9"/>
<line class="st0" x1="-636.4" y1="415.1" x2="-636.4" y2="112.9"/>
<line class="st0" x1="-607.1" y1="415.1" x2="-607.1" y2="112.9"/>
<line class="st0" x1="-577.8" y1="415.1" x2="-577.8" y2="112.9"/>
<line class="st0" x1="-431.3" y1="415.1" x2="-431.3" y2="112.9"/>
<line class="st0" x1="-372.7" y1="415.1" x2="-372.7" y2="112.9"/>
<line class="st0" x1="-314.2" y1="415.1" x2="-314.2" y2="112.9"/>
<line class="st0" x1="-548.5" y1="415.1" x2="-548.5" y2="112.9"/>
<line class="st0" x1="-489.9" y1="415.1" x2="-489.9" y2="112.9"/>
<g>
	<g>
		<path class="st1" d="M-308.1,253.9c2.2-4.5,5.6-12.4,7.9-22.6c6-25.8-3.7-52.2-24.9-69.3"/>
		<g>
			<path d="M-310.2,257.9c1.7-1.5,4.1-3.3,6.1-4.1l-3.8-0.5l-2.6-2.8C-309.9,252.6-309.9,255.6-310.2,257.9z"/>
		</g>
	</g>
</g>
<line class="st2" x1="-249.6" y1="415.5" x2="-693.9" y2="415.5"/>
<text transform="matrix(1.0913 0 0 1 -731.1016 396.3623)" class="st3 st4" style="font-size:11.5157px;">2017</text>
<text transform="matrix(1.0913 0 0 1 -731.1016 312.9688)" class="st3 st4" style="font-size:11.5157px;">2019</text>
<text transform="matrix(1.0913 0 0 1 -731.1016 229.5752)" class="st3 st4" style="font-size:11.5157px;">2021</text>
<text transform="matrix(1.0913 0 0 1 -731.1016 146.1807)" class="st3 st4" style="font-size:11.5157px;">2023</text>
<text transform="matrix(1.0913 0 0 1 -275.1338 146.6143)" class="st6" style="font-size:13.9833px;">141</text>
<g>
	<g>
		<path d="M-386.8,281.3l-2.7-10.8h1.3l1.2,5.1c0.4,1.5,0.8,3.4,0.9,4.4l0,0c0.1-0.9,0.7-2.9,1.1-4.4l1.3-5.1h1.3l-2.9,10.8H-386.8z
			"/>
		<path d="M-381.4,273.3h1.2v8h-1.2V273.3z M-381.4,270h1.2v1.7h-1.2V270z"/>
		<path d="M-373,270v9.2c0,0.8,0,1.6,0,2.1h-1.2c0-0.2,0-0.7,0-1.1c-0.3,0.7-0.8,1.2-1.9,1.2c-1.7,0-2.5-1.4-2.5-4.2
			c0-2.6,1-4.1,2.7-4.1c1.1,0,1.5,0.4,1.7,0.8v-4h1.2V270z M-377.4,277.2c0,2.3,0.5,3.2,1.6,3.2c1.3,0,1.6-1.1,1.6-3.2
			c0-2.3-0.3-3-1.5-3C-376.7,274.2-377.4,275-377.4,277.2z"/>
		<path d="M-370.3,277.5c0,1.6,0.3,2.9,1.6,2.9c1.3,0,1.5-1.2,1.5-1.4h1.2c0,0.2-0.3,2.4-2.7,2.4c-2.4,0-2.8-2.2-2.8-4.2
			c0-2.5,0.9-4.1,2.8-4.1c2.2,0,2.7,1.7,2.7,3.7c0,0.2,0,0.4,0,0.6h-4.3V277.5z M-367.2,276.6c0-1.4-0.3-2.5-1.5-2.5
			c-1.5,0-1.6,1.9-1.6,2.5H-367.2z"/>
		<path d="M-359.1,277.2c0,2.8-1,4.3-2.9,4.3s-2.9-1.4-2.9-4.2c0-2.8,1.1-4.1,2.9-4.1C-360.1,273.1-359.1,274.5-359.1,277.2z
			 M-363.6,277.2c0,2.2,0.6,3.2,1.6,3.2c1.1,0,1.6-1.1,1.6-3.2s-0.5-3.1-1.6-3.1C-363,274.1-363.6,275-363.6,277.2z"/>
		<path d="M-355.5,273.3h1.2v-2.1h1.2v2.1h1.4v1h-1.4v5.3c0,0.6,0.1,0.9,0.8,0.9c0.2,0,0.4,0,0.6,0v0.9c-0.3,0.1-0.7,0.1-1,0.1
			c-1,0-1.5-0.4-1.5-1.6v-5.5h-1.2v-1.1H-355.5z"/>
		<path d="M-350.6,273.3h1.2v8h-1.2V273.3z M-350.5,270h1.2v1.7h-1.2V270z"/>
		<path d="M-348.4,273.3h1.2v-2.1h1.2v2.1h1.4v1h-1.4v5.3c0,0.6,0.1,0.9,0.8,0.9c0.2,0,0.4,0,0.6,0v0.9c-0.3,0.1-0.7,0.1-1,0.1
			c-1,0-1.5-0.4-1.5-1.6v-5.5h-1.2v-1.1H-348.4z"/>
		<path d="M-343.5,281.3V270h1.2v11.3H-343.5z"/>
		<path d="M-339.5,277.5c0,1.6,0.3,2.9,1.6,2.9c1.3,0,1.5-1.2,1.5-1.4h1.2c0,0.2-0.3,2.4-2.7,2.4c-2.4,0-2.8-2.2-2.8-4.2
			c0-2.5,0.9-4.1,2.8-4.1c2.2,0,2.7,1.7,2.7,3.7c0,0.2,0,0.4,0,0.6h-4.3V277.5z M-336.4,276.6c0-1.4-0.3-2.5-1.5-2.5
			c-1.5,0-1.6,1.9-1.6,2.5H-336.4z"/>
		<path d="M-333.1,279c0.1,0.9,0.5,1.5,1.5,1.5c0.9,0,1.3-0.5,1.3-1.3s-0.4-1.2-1.5-1.6c-1.7-0.6-2.2-1.2-2.2-2.4
			c0-1.1,0.7-2.1,2.4-2.1c1.9,0,2.4,1.2,2.4,2.3h-1.2c0-0.4-0.1-1.3-1.3-1.3c-0.8,0-1.1,0.5-1.1,1.1s0.3,1,1.4,1.4
			c1.6,0.6,2.3,1.2,2.3,2.5c0,1.5-0.9,2.3-2.6,2.3s-2.6-1-2.6-2.5h1.2V279z"/>
		<path d="M-319.5,278.8c0,0.4-0.2,2.6-2.6,2.6c-2.2,0-2.8-1.9-2.8-4.2c0-2.3,0.8-4.1,2.9-4.1c2.4,0,2.5,2.2,2.5,2.5h-1.2
			c0-0.3-0.1-1.5-1.3-1.5c-1.2,0-1.6,1.3-1.6,3.1c0,2,0.5,3.2,1.6,3.2c1.2,0,1.3-1.2,1.4-1.6H-319.5z"/>
		<path d="M-312.8,277.2c0,2.8-1,4.3-2.9,4.3s-2.9-1.4-2.9-4.2c0-2.8,1.1-4.1,2.9-4.1C-313.8,273.1-312.8,274.5-312.8,277.2z
			 M-317.3,277.2c0,2.2,0.6,3.2,1.6,3.2c1.1,0,1.6-1.1,1.6-3.2s-0.5-3.1-1.6-3.1C-316.7,274.1-317.3,275-317.3,277.2z"/>
		<path d="M-311.2,275.7c0-1.6,0-2.1,0-2.5h1.2c0,0.2,0,0.5,0,1.1c0.3-0.6,0.8-1.2,2-1.2s2.1,0.7,2.1,2.4v5.7h-1.2v-5.5
			c0-1-0.3-1.6-1.3-1.6c-1.1,0-1.6,0.7-1.6,2.4v4.8h-1.2V275.7z"/>
		<path d="M-305,273.3h1.2v-2.1h1.2v2.1h1.4v1h-1.4v5.3c0,0.6,0.1,0.9,0.8,0.9c0.2,0,0.4,0,0.6,0v0.9c-0.3,0.1-0.7,0.1-1,0.1
			c-1,0-1.5-0.4-1.5-1.6v-5.5h-1.2v-1.1H-305z"/>
		<path d="M-295.2,279.9c0,0.5,0,1.2,0.1,1.4h-1.1c0-0.2-0.1-0.6-0.1-0.9c-0.3,0.7-0.9,1.1-2,1.1c-1.6,0-2.2-1.2-2.2-2.3
			c0-1.5,1-2.6,3.2-2.6c0.4,0,0.6,0,0.9,0v-1.1c0-0.6-0.1-1.4-1.2-1.4c-1.2,0-1.3,0.8-1.3,1.4h-1.2c0-1.1,0.6-2.3,2.5-2.3
			c1.6,0,2.4,0.8,2.4,2.2L-295.2,279.9L-295.2,279.9z M-296.4,277.5c-0.2,0-0.4,0-0.8,0c-1.5,0-2.1,0.7-2.1,1.6
			c0,0.7,0.4,1.4,1.3,1.4c1.2,0,1.6-0.8,1.6-2.5V277.5z"/>
		<path d="M-293.3,273.3h1.2v8h-1.2V273.3z M-293.3,270h1.2v1.7h-1.2V270z"/>
		<path d="M-290.1,275.7c0-1.6,0-2.1,0-2.5h1.2c0,0.2,0,0.5,0,1.1c0.3-0.6,0.8-1.2,2-1.2s2.1,0.7,2.1,2.4v5.7h-1.2v-5.5
			c0-1-0.3-1.6-1.3-1.6c-1.1,0-1.6,0.7-1.6,2.4v4.8h-1.2V275.7z"/>
		<path d="M-282.1,277.5c0,1.6,0.3,2.9,1.6,2.9c1.3,0,1.5-1.2,1.5-1.4h1.2c0,0.2-0.3,2.4-2.7,2.4c-2.4,0-2.8-2.2-2.8-4.2
			c0-2.5,0.9-4.1,2.8-4.1c2.2,0,2.7,1.7,2.7,3.7c0,0.2,0,0.4,0,0.6h-4.3V277.5z M-278.9,276.6c0-1.4-0.3-2.5-1.5-2.5
			c-1.5,0-1.6,1.9-1.6,2.5H-278.9z"/>
		<path d="M-271,270v9.2c0,0.8,0,1.6,0,2.1h-1.2c0-0.2,0-0.7,0-1.1c-0.3,0.7-0.8,1.2-1.9,1.2c-1.7,0-2.5-1.4-2.5-4.2
			c0-2.6,1-4.1,2.7-4.1c1.1,0,1.5,0.4,1.7,0.8v-4h1.2V270z M-275.4,277.2c0,2.3,0.5,3.2,1.6,3.2c1.3,0,1.6-1.1,1.6-3.2
			c0-2.3-0.3-3-1.5-3C-274.7,274.2-275.4,275-275.4,277.2z"/>
		<path d="M-445,289c-0.3,1-0.6,2.6-0.6,3.7h-1.1c0-1.3,0.4-2.9,0.7-3.7H-445z M-443.1,289c-0.3,1-0.6,2.5-0.6,3.7h-1.1
			c0-1.4,0.4-2.9,0.7-3.7H-443.1z"/>
		<path d="M-441.7,289.5h2.5c2.6,0,3.7,1.7,3.7,5.1c0,3.7-1,5.7-3.9,5.7h-2.3L-441.7,289.5L-441.7,289.5z M-440.5,299.3h1
			c2,0,2.7-1.6,2.7-4.6c0-2.9-0.8-4.1-2.7-4.1h-1V299.3z"/>
		<path d="M-428.7,298.1c0,1,0,1.8,0,2.2h-1.1c0-0.2-0.1-0.6-0.1-1.1c-0.3,0.8-1,1.2-2,1.2s-2.1-0.4-2.1-2.4v-5.8h1.2v5.5
			c0,1,0.3,1.7,1.2,1.7c0.9,0,1.6-0.5,1.6-2.3v-4.9h1.2L-428.7,298.1L-428.7,298.1z"/>
		<path d="M-426.7,294.7c0-1.4,0-2,0-2.4h1.2c0,0.2,0,0.7,0,1c0.3-0.7,0.9-1.2,1.9-1.2c0.9,0,1.5,0.4,1.7,1.2c0.3-0.6,0.9-1.2,2-1.2
			c1,0,2,0.5,2,2.3v5.8h-1.2v-5.6c0-0.8-0.2-1.5-1.2-1.5c-1.1,0-1.4,0.9-1.4,2v5.2h-1.2v-5.6c0-1-0.3-1.5-1.2-1.5
			c-1,0-1.5,0.9-1.5,2.1v5h-1.2v-5.6H-426.7z"/>
		<path d="M-414.8,299.5v3.8h-1.2v-8.6c0-1.1,0-1.8,0-2.3h1.2c0,0.1,0,0.7,0,1.1c0.3-0.7,0.9-1.2,2-1.2c1.6,0,2.4,1.4,2.4,4
			c0,2.9-1,4.3-2.7,4.3C-414.1,300.5-414.6,300-414.8,299.5z M-411.6,296.2c0-2-0.5-3.1-1.6-3.1c-1.3,0-1.6,1.2-1.6,3.1
			s0.2,3.2,1.6,3.2C-412.2,299.4-411.6,298.2-411.6,296.2z"/>
		<path d="M-408.3,298c0.1,0.9,0.5,1.5,1.5,1.5c0.9,0,1.3-0.5,1.3-1.3s-0.4-1.2-1.5-1.6c-1.7-0.6-2.2-1.2-2.2-2.4
			c0-1.1,0.7-2.1,2.4-2.1c1.9,0,2.4,1.2,2.4,2.3h-1.2c0-0.4-0.1-1.3-1.3-1.3c-0.8,0-1.1,0.5-1.1,1.1s0.3,1,1.4,1.4
			c1.6,0.6,2.3,1.2,2.3,2.5c0,1.5-0.9,2.3-2.6,2.3s-2.6-1-2.6-2.5h1.2V298z"/>
		<path d="M-403.8,292.3h1.2v-2.1h1.2v2.1h1.4v1h-1.4v5.3c0,0.6,0.1,0.9,0.8,0.9c0.2,0,0.4,0,0.6,0v0.9c-0.3,0.1-0.7,0.1-1,0.1
			c-1,0-1.5-0.4-1.5-1.6v-5.5h-1.2v-1.1H-403.8z"/>
		<path d="M-398.1,296.5c0,1.6,0.3,2.9,1.6,2.9c1.3,0,1.5-1.2,1.5-1.4h1.2c0,0.2-0.3,2.4-2.7,2.4c-2.4,0-2.8-2.2-2.8-4.2
			c0-2.5,0.9-4.1,2.8-4.1c2.2,0,2.7,1.7,2.7,3.7c0,0.2,0,0.4,0,0.6h-4.3V296.5z M-394.9,295.6c0-1.4-0.3-2.5-1.5-2.5
			c-1.5,0-1.6,1.9-1.6,2.5H-394.9z"/>
		<path d="M-392.2,295c0-1.3,0-2.2,0-2.7h1.2c0,0.2,0,0.6,0,1.4c0.4-1,1.2-1.5,2.2-1.6v1.3c-1.4,0-2.2,0.9-2.2,2.4v4.5h-1.2V295z"/>
		<path d="M-384.5,289.5h2.5c2.6,0,3.7,1.7,3.7,5.1c0,3.7-1,5.7-3.9,5.7h-2.3L-384.5,289.5L-384.5,289.5z M-383.2,299.3h1
			c2,0,2.7-1.6,2.7-4.6c0-2.9-0.8-4.1-2.7-4.1h-1V299.3z"/>
		<path d="M-376.2,292.3c0.7,2.6,1.5,5.7,1.7,6.7l0,0c0.1-0.9,1.4-5.1,1.8-6.7h1.2l-2.4,8h-1.3l-2.3-8H-376.2z"/>
		<path d="M-370.4,292.3h1.2v8h-1.2V292.3z M-370.4,289h1.2v1.7h-1.2V289z"/>
		<path d="M-367.2,294.8c0-1.6,0-2.1,0-2.5h1.2c0,0.2,0,0.5,0,1.1c0.3-0.6,0.8-1.2,2-1.2s2.1,0.7,2.1,2.4v5.7h-1.2v-5.5
			c0-1-0.3-1.6-1.3-1.6c-1.1,0-1.6,0.7-1.6,2.4v4.8h-1.2V294.8z"/>
		<path d="M-354.8,299.8c0,2.1-0.5,3.6-2.9,3.6c-2.1,0-2.6-1.3-2.7-2.2h1.2c0,0.4,0.3,1.2,1.5,1.2c1.4,0,1.7-1,1.7-2.6v-0.7
			c-0.3,0.8-1,1.2-1.9,1.2c-1.7,0-2.5-1.4-2.5-3.9c0-2.9,1.1-4.2,2.7-4.2c1.1,0,1.6,0.5,1.8,1c0-0.4,0-0.8,0.1-0.9h1.1
			c0,0.4,0,1.2,0,2.3v5.2H-354.8z M-359.2,296.4c0,1.9,0.6,2.9,1.6,2.9c1.3,0,1.6-1.2,1.6-3.1s-0.3-3-1.5-3
			C-358.6,293.2-359.2,294.3-359.2,296.4z"/>
		<path d="M-353.5,292.6c0.3-1,0.6-2.5,0.6-3.7h1.1c0,1.4-0.4,2.9-0.7,3.7H-353.5z M-351.5,292.6c0.3-1,0.6-2.6,0.6-3.7h1.1
			c0,1.3-0.4,2.9-0.7,3.7H-351.5z"/>
		<path d="M-344.8,298c0.1,0.9,0.5,1.5,1.5,1.5c0.9,0,1.3-0.5,1.3-1.3s-0.4-1.2-1.5-1.6c-1.7-0.6-2.2-1.2-2.2-2.4
			c0-1.1,0.7-2.1,2.4-2.1c1.9,0,2.4,1.2,2.4,2.3h-1.2c0-0.4-0.1-1.3-1.3-1.3c-0.8,0-1.1,0.5-1.1,1.1s0.3,1,1.4,1.4
			c1.6,0.6,2.3,1.2,2.3,2.5c0,1.5-0.9,2.3-2.6,2.3s-2.6-1-2.6-2.5h1.2V298z"/>
		<path d="M-338.1,299.5v3.8h-1.2v-8.6c0-1.1,0-1.8,0-2.3h1.2c0,0.1,0,0.7,0,1.1c0.3-0.7,0.9-1.2,2-1.2c1.6,0,2.4,1.4,2.4,4
			c0,2.9-1,4.3-2.7,4.3C-337.4,300.5-337.9,300-338.1,299.5z M-335,296.2c0-2-0.5-3.1-1.6-3.1c-1.3,0-1.6,1.2-1.6,3.1
			s0.2,3.2,1.6,3.2C-335.5,299.4-335,298.2-335,296.2z"/>
		<path d="M-332.2,292.3h1.2v8h-1.2V292.3z M-332.2,289h1.2v1.7h-1.2V289z"/>
		<path d="M-327.8,296.1c0.5-0.8,1.9-2.7,2.7-3.8h1.3c-0.7,1-1.5,2-2.3,3.1l2.5,5h-1.4l-2-4c-0.2,0.3-0.7,0.9-0.9,1.2v2.9h-1.2V289
			h1.2L-327.8,296.1L-327.8,296.1z"/>
		<path d="M-321.9,296.5c0,1.6,0.3,2.9,1.6,2.9c1.3,0,1.5-1.2,1.5-1.4h1.2c0,0.2-0.3,2.4-2.7,2.4c-2.4,0-2.8-2.2-2.8-4.2
			c0-2.5,0.9-4.1,2.8-4.1c2.2,0,2.7,1.7,2.7,3.7c0,0.2,0,0.4,0,0.6h-4.3V296.5z M-318.8,295.6c0-1.4-0.3-2.5-1.5-2.5
			c-1.5,0-1.6,1.9-1.6,2.5H-318.8z"/>
		<path d="M-310.9,289v9.2c0,0.8,0,1.6,0,2.1h-1.2c0-0.2,0-0.7,0-1.1c-0.3,0.7-0.8,1.2-1.9,1.2c-1.7,0-2.5-1.4-2.5-4.2
			c0-2.6,1-4.1,2.7-4.1c1.1,0,1.5,0.4,1.7,0.8v-4h1.2V289z M-315.3,296.2c0,2.3,0.5,3.2,1.6,3.2c1.3,0,1.6-1.1,1.6-3.2
			c0-2.3-0.3-3-1.5-3C-314.6,293.2-315.3,294-315.3,296.2z"/>
		<path d="M-305.8,292.3h1.2v8h-1.2V292.3z M-305.8,289h1.2v1.7h-1.2V289z"/>
		<path d="M-302.6,294.8c0-1.6,0-2.1,0-2.5h1.2c0,0.2,0,0.5,0,1.1c0.3-0.6,0.8-1.2,2-1.2s2.1,0.7,2.1,2.4v5.7h-1.2v-5.5
			c0-1-0.3-1.6-1.3-1.6c-1.1,0-1.6,0.7-1.6,2.4v4.8h-1.2V294.8z"/>
		<path d="M-292.9,300.3L-292.9,300.3c0-1.4,0.8-2.8,2.4-4.6c1.4-1.5,1.8-2,1.8-3.2c0-0.9-0.3-1.8-1.4-1.8c-1,0-1.5,0.8-1.5,2h-1.2
			c0-1.5,0.8-3,2.7-3c1.9,0,2.6,1.3,2.6,2.8c0,1.4-0.5,2.1-1.9,3.6c-1.3,1.3-2,2.4-2.2,3.2h4.4l-0.2,1H-292.9z"/>
		<path d="M-280.5,295c0,3.8-0.8,5.5-2.8,5.5c-2.2,0-2.8-1.8-2.8-5.5c0-4,1.1-5.2,2.9-5.2C-281.3,289.7-280.5,291.2-280.5,295z
			 M-285,294.9c0,3,0.3,4.5,1.6,4.5c1.3,0,1.6-1.5,1.6-4.5c0-3.1-0.4-4.2-1.6-4.2C-284.5,290.7-285,291.8-285,294.9z"/>
		<path d="M-279.5,300.3L-279.5,300.3c0-1.4,0.8-2.8,2.4-4.6c1.4-1.5,1.8-2,1.8-3.2c0-0.9-0.3-1.8-1.4-1.8c-1,0-1.5,0.8-1.5,2h-1.2
			c0-1.5,0.8-3,2.7-3c1.9,0,2.6,1.3,2.6,2.8c0,1.4-0.5,2.1-1.9,3.6c-1.3,1.3-2,2.4-2.2,3.2h4.4l-0.2,1H-279.5z"/>
		<path d="M-272.8,292.4c0-1.1,0.5-2.6,2.6-2.6c1.8,0,2.5,1.1,2.5,2.6c0,1.3-0.6,2-1.3,2.2l0,0c1,0.3,1.6,1.1,1.6,2.7
			s-0.7,3.2-2.9,3.2c-2,0-2.7-1.3-2.7-2.7h1.2c0,0.8,0.4,1.7,1.6,1.7c1.3,0,1.6-1.1,1.6-2.2c0-1.7-0.8-2.1-2-2.1h-0.5v-1h0.5
			c1.1,0,1.7-0.4,1.7-1.8c0-1-0.3-1.7-1.3-1.7c-1.2,0-1.4,1.2-1.4,1.7L-272.8,292.4L-272.8,292.4z"/>
	</g>
</g>
<text transform="matrix(1.0913 0 0 1 -644.4814 431.1191)" class="st8 st4" style="font-size:11.5157px;">20</text>
<text transform="matrix(1.0913 0 0 1 -615.1904 431.1201)" class="st8 st4" style="font-size:11.5157px;">30</text>
<text transform="matrix(1.0913 0 0 1 -585.8984 431.1191)" class="st8 st4" style="font-size:11.5157px;">40</text>
<text transform="matrix(1.0913 0 0 1 -498.0234 431.1191)" class="st8 st4" style="font-size:11.5157px;">70</text>
<text transform="matrix(1.0913 0 0 1 -556.6064 431.1201)" class="st8 st4" style="font-size:11.5157px;">50</text>
<text transform="matrix(1.0913 0 0 1 -439.4375 431.1201)" class="st8 st4" style="font-size:11.5157px;">90</text>
<text transform="matrix(1.0913 0 0 1 -384.7261 431.1191)" class="st8 st4" style="font-size:11.5157px;">110</text>
<text transform="matrix(1.0913 0 0 1 -326.7388 431.1191)" class="st8 st4" style="font-size:11.5157px;">130 counts</text>
<text transform="matrix(1.0913 0 0 1 -673.7734 431.1191)" class="st8 st4" style="font-size:11.5157px;">10</text>
<text transform="matrix(1.0913 0 0 1 -656.5234 399.8281)" class="st4" style="font-size:13.1608px;">12</text>
<g>
	<g>
		<g>
			
				<image style="overflow:visible;enable-background:new    ;" width="44" height="44" xlink:href="A4010413F047C0E7.png"  transform="matrix(1 0 0 1 -700.0798 120.5441)">
			</image>
		</g>
		<g>
			
				<image style="overflow:visible;enable-background:new    ;" width="44" height="44" xlink:href="A4010413F047C0E4.png"  transform="matrix(1 0 0 1 -671.0798 120.5441)">
			</image>
		</g>
		<g>
			
				<image style="overflow:visible;enable-background:new    ;" width="44" height="44" xlink:href="A4010413F047C0FB.png"  transform="matrix(1 0 0 1 -642.0798 120.5441)">
			</image>
		</g>
		<g>
			
				<image style="overflow:visible;enable-background:new    ;" width="44" height="44" xlink:href="A4010413F047C0FD.png"  transform="matrix(1 0 0 1 -612.0798 120.5441)">
			</image>
		</g>
		<g>
			
				<image style="overflow:visible;enable-background:new    ;" width="44" height="44" xlink:href="A4010413F047C0FF.png"  transform="matrix(1 0 0 1 -583.0798 120.5441)">
			</image>
		</g>
		<g>
			
				<image style="overflow:visible;enable-background:new    ;" width="44" height="44" xlink:href="A4010413F047C0FC.png"  transform="matrix(1 0 0 1 -554.0798 120.5441)">
			</image>
		</g>
		<g>
			
				<image style="overflow:visible;enable-background:new    ;" width="44" height="44" xlink:href="A4010413F047C0E6.png"  transform="matrix(1 0 0 1 -525.0798 120.5441)">
			</image>
		</g>
		<g>
			
				<image style="overflow:visible;enable-background:new    ;" width="44" height="44" xlink:href="A4010413F047C0E1.png"  transform="matrix(1 0 0 1 -496.0799 120.5441)">
			</image>
		</g>
		<g>
			
				<image style="overflow:visible;enable-background:new    ;" width="44" height="44" xlink:href="A4010413F047C0E2.png"  transform="matrix(1 0 0 1 -467.0799 120.5441)">
			</image>
		</g>
		<g>
			
				<image style="overflow:visible;enable-background:new    ;" width="44" height="44" xlink:href="A4010413F047C0C0.png"  transform="matrix(1 0 0 1 -437.0799 120.5441)">
			</image>
		</g>
		<g>
			
				<image style="overflow:visible;enable-background:new    ;" width="44" height="44" xlink:href="A4010413F047C0C7.png"  transform="matrix(1 0 0 1 -408.0799 120.5441)">
			</image>
		</g>
		<g>
			
				<image style="overflow:visible;enable-background:new    ;" width="44" height="44" xlink:href="A4010413F047C0C1.png"  transform="matrix(1 0 0 1 -379.0799 120.5441)">
			</image>
		</g>
		<g>
			
				<image style="overflow:visible;enable-background:new    ;" width="44" height="44" xlink:href="A4010413F047C0C3.png"  transform="matrix(1 0 0 1 -350.0799 120.5441)">
			</image>
		</g>
		<g>
			
				<image style="overflow:visible;enable-background:new    ;" width="44" height="44" xlink:href="A4010413F047C0CE.png"  transform="matrix(1 0 0 1 -321.0799 120.5441)">
			</image>
		</g>
	</g>
</g>
<g>
	<g>
		<g>
			
				<image style="overflow:visible;enable-background:new    ;" width="44" height="44" xlink:href="A4010413F047C0CF.png"  transform="matrix(1 0 0 1 -700.0798 162.5441)">
			</image>
		</g>
		<g>
			
				<image style="overflow:visible;enable-background:new    ;" width="44" height="44" xlink:href="A4010413F047C0C2.png"  transform="matrix(1 0 0 1 -671.0798 162.5441)">
			</image>
		</g>
		<g>
			
				<image style="overflow:visible;enable-background:new    ;" width="44" height="44" xlink:href="A4010413F047C0C5.png"  transform="matrix(1 0 0 1 -642.0798 162.5441)">
			</image>
		</g>
		<g>
			
				<image style="overflow:visible;enable-background:new    ;" width="44" height="44" xlink:href="A4010413F047C0C6.png"  transform="matrix(1 0 0 1 -612.0798 162.5441)">
			</image>
		</g>
		<g>
			
				<image style="overflow:visible;enable-background:new    ;" width="44" height="44" xlink:href="A4010413F047C0C4.png"  transform="matrix(1 0 0 1 -583.0798 162.5441)">
			</image>
		</g>
		<g>
			
				<image style="overflow:visible;enable-background:new    ;" width="44" height="44" xlink:href="A4010413F047C12B.png"  transform="matrix(1 0 0 1 -554.0798 162.5441)">
			</image>
		</g>
		<g>
			
				<image style="overflow:visible;enable-background:new    ;" width="44" height="44" xlink:href="A4010413F047C125.png"  transform="matrix(1 0 0 1 -525.0798 162.5441)">
			</image>
		</g>
		<g>
			
				<image style="overflow:visible;enable-background:new    ;" width="44" height="44" xlink:href="A4010413F047C127.png"  transform="matrix(1 0 0 1 -496.0799 162.5441)">
			</image>
		</g>
		<g>
			
				<image style="overflow:visible;enable-background:new    ;" width="44" height="44" xlink:href="A4010413F047C15A.png"  transform="matrix(1 0 0 1 -467.0799 162.5441)">
			</image>
		</g>
		<g>
			
				<image style="overflow:visible;enable-background:new    ;" width="44" height="44" xlink:href="A4010413F047C15B.png"  transform="matrix(1 0 0 1 -437.0799 162.5441)">
			</image>
		</g>
		<g>
			
				<image style="overflow:visible;enable-background:new    ;" width="44" height="44" xlink:href="A4010413F047C15D.png"  transform="matrix(1 0 0 1 -408.0799 162.5441)">
			</image>
		</g>
	</g>
</g>
<g>
	<g>
		<g>
			
				<image style="overflow:visible;enable-background:new    ;" width="44" height="44" xlink:href="A4010413F047C15F.png"  transform="matrix(1 0 0 1 -700.0798 203.5441)">
			</image>
		</g>
		<g>
			
				<image style="overflow:visible;enable-background:new    ;" width="44" height="44" xlink:href="A4010413F047C158.png"  transform="matrix(1 0 0 1 -671.0798 203.5441)">
			</image>
		</g>
		<g>
			
				<image style="overflow:visible;enable-background:new    ;" width="44" height="44" xlink:href="A4010413F047C159.png"  transform="matrix(1 0 0 1 -642.0798 203.5441)">
			</image>
		</g>
		<g>
			
				<image style="overflow:visible;enable-background:new    ;" width="44" height="44" xlink:href="A4010413F047C165.png"  transform="matrix(1 0 0 1 -612.0798 203.5441)">
			</image>
		</g>
	</g>
</g>
<g>
	<g>
		<g>
			
				<image style="overflow:visible;enable-background:new    ;" width="44" height="44" xlink:href="A4010413F047C17A.png"  transform="matrix(1 0 0 1 -700.0798 245.5441)">
			</image>
		</g>
		<g>
			
				<image style="overflow:visible;enable-background:new    ;" width="44" height="44" xlink:href="A4010413F047C175.png"  transform="matrix(1 0 0 1 -671.0798 245.5441)">
			</image>
		</g>
		<g>
			
				<image style="overflow:visible;enable-background:new    ;" width="44" height="44" xlink:href="A4010413F047C176.png"  transform="matrix(1 0 0 1 -642.0798 245.5441)">
			</image>
		</g>
		<g>
			
				<image style="overflow:visible;enable-background:new    ;" width="44" height="44" xlink:href="A4010413F047C174.png"  transform="matrix(1 0 0 1 -612.0798 245.5441)">
			</image>
		</g>
	</g>
</g>
<g>
	<g>
		<g>
			
				<image style="overflow:visible;enable-background:new    ;" width="44" height="44" xlink:href="A4010413F047C10A.png"  transform="matrix(1 0 0 1 -700.0798 287.5441)">
			</image>
		</g>
		<g>
			
				<image style="overflow:visible;enable-background:new    ;" width="44" height="44" xlink:href="A4010413F047C10D.png"  transform="matrix(1 0 0 1 -671.0798 287.5441)">
			</image>
		</g>
		<g>
			
				<image style="overflow:visible;enable-background:new    ;" width="44" height="44" xlink:href="A4010413F047C10E.png"  transform="matrix(1 0 0 1 -642.0798 287.5441)">
			</image>
		</g>
	</g>
</g>
<g>
	<g>
		<g>
			
				<image style="overflow:visible;enable-background:new    ;" width="44" height="44" xlink:href="A4010413F047C10C.png"  transform="matrix(1 0 0 1 -700.0798 329.5441)">
			</image>
		</g>
		<g>
			
				<image style="overflow:visible;enable-background:new    ;" width="44" height="44" xlink:href="A4010413F047C10B.png"  transform="matrix(1 0 0 1 -671.0798 329.5441)">
			</image>
		</g>
	</g>
</g>
<g>
	<g>
		<g>
			
				<image style="overflow:visible;enable-background:new    ;" width="44" height="44" xlink:href="A4010413F047C115.png"  transform="matrix(1 0 0 1 -700.0798 369.5441)">
			</image>
		</g>
	</g>
</g>
<text transform="matrix(1.0913 0 0 1 -731.1016 187.8779)" class="st3 st4" style="font-size:11.5157px;">2022</text>
<text transform="matrix(1.0913 0 0 1 -731.1016 354.665)" class="st3 st4" style="font-size:11.5157px;">2018</text>
<text transform="matrix(1.0913 0 0 1 -731.1016 271.2715)" class="st3 st4" style="font-size:11.5157px;">2020</text>
<line class="st0" x1="52.1" y1="241.5" x2="52.1" y2="-0.4"/>
<line class="st0" x1="74.7" y1="241.5" x2="74.7" y2="-0.4"/>
<line class="st0" x1="97.2" y1="241.5" x2="97.2" y2="-0.4"/>
<line class="st0" x1="119.8" y1="241.5" x2="119.8" y2="-0.4"/>
<line class="st0" x1="232.8" y1="241.5" x2="232.8" y2="-0.4"/>
<line class="st0" x1="278" y1="241.5" x2="278" y2="-0.4"/>
<line class="st0" x1="323.2" y1="241.5" x2="323.2" y2="-0.4"/>
<line class="st0" x1="142.4" y1="241.5" x2="142.4" y2="-0.4"/>
<line class="st0" x1="187.6" y1="241.5" x2="187.6" y2="-0.4"/>
<g>
	<g>
		<path class="st1" d="M328.3,111.6c1.7-3.7,4-9.7,5.7-17.2c4.6-20.6-2.9-41.8-19.2-55.4"/>
		<g>
			<path d="M326.3,115.7c1.6-1.6,4-3.4,6-4.2l-3.8-0.4l-2.6-2.7C326.4,110.4,326.5,113.4,326.3,115.7z"/>
		</g>
	</g>
</g>
<line class="st2" x1="373" y1="241.8" x2="30.3" y2="241.8"/>
<text transform="matrix(1.0519 0 0 1 1.5869 226.501)" class="st3 st4 st5">2017</text>
<text transform="matrix(1.0519 0 0 1 1.5869 159.7666)" class="st3 st4 st5">2019</text>
<text transform="matrix(1.0519 0 0 1 1.5869 93.0322)" class="st3 st4 st5">2021</text>
<text transform="matrix(1.0519 0 0 1 1.5869 26.2979)" class="st3 st4 st5">2023</text>
<text transform="matrix(1.0519 0 0 1 353.2886 26.6455)" class="st6 st7">141</text>
<g>
	<g>
		<path d="M267.2,134.4l-2.1-8.6h1l0.9,4.1c0.3,1.2,0.6,2.7,0.7,3.5l0,0c0.1-0.7,0.5-2.3,0.8-3.5l1-4.1h1l-2.2,8.6H267.2z"/>
		<path d="M271.3,128h0.9v6.4h-0.9V128z M271.3,125.4h0.9v1.3h-0.9V125.4z"/>
		<path d="M277.8,125.4v7.4c0,0.6,0,1.3,0,1.7h-0.9c0-0.2,0-0.6,0-0.9c-0.2,0.6-0.6,1-1.5,1c-1.3,0-1.9-1.1-1.9-3.4
			c0-2.1,0.8-3.3,2.1-3.3c0.8,0,1.2,0.4,1.3,0.7v-3.2C276.9,125.4,277.8,125.4,277.8,125.4z M274.4,131.1c0,1.9,0.4,2.6,1.2,2.6
			c1,0,1.3-0.9,1.3-2.6c0-1.9-0.3-2.4-1.2-2.4C274.9,128.7,274.4,129.4,274.4,131.1z"/>
		<path d="M279.9,131.4c0,1.3,0.2,2.4,1.2,2.4s1.1-1,1.2-1.2h0.9c0,0.2-0.2,2-2.1,2s-2.1-1.7-2.1-3.3c0-2,0.7-3.3,2.2-3.3
			c1.7,0,2.1,1.4,2.1,3c0,0.1,0,0.3,0,0.5L279.9,131.4L279.9,131.4z M282.3,130.7c0-1.1-0.2-2-1.2-2c-1.2,0-1.2,1.5-1.2,2H282.3z"/>
		<path d="M288.5,131.1c0,2.3-0.8,3.4-2.2,3.4c-1.5,0-2.2-1.1-2.2-3.4c0-2.2,0.9-3.3,2.2-3.3C287.7,127.9,288.5,129,288.5,131.1z
			 M285,131.2c0,1.7,0.4,2.6,1.3,2.6c0.8,0,1.2-0.8,1.2-2.6c0-1.6-0.4-2.5-1.3-2.5C285.5,128.7,285,129.4,285,131.2z"/>
		<path d="M291.3,128h0.9v-1.7h0.9v1.7h1.1v0.8h-1.1v4.2c0,0.4,0.1,0.7,0.6,0.7c0.2,0,0.3,0,0.5,0v0.7c-0.2,0.1-0.5,0.1-0.8,0.1
			c-0.8,0-1.2-0.3-1.2-1.3v-4.4h-0.9V128z"/>
		<path d="M295.1,128h0.9v6.4h-0.9V128z M295.1,125.4h0.9v1.3h-0.9V125.4z"/>
		<path d="M296.8,128h0.9v-1.7h0.9v1.7h1.1v0.8h-1.1v4.2c0,0.4,0.1,0.7,0.6,0.7c0.2,0,0.3,0,0.5,0v0.7c-0.2,0.1-0.5,0.1-0.8,0.1
			c-0.8,0-1.2-0.3-1.2-1.3v-4.4h-0.9V128z"/>
		<path d="M300.6,134.4v-9h0.9v9H300.6z"/>
		<path d="M303.6,131.4c0,1.3,0.2,2.4,1.2,2.4s1.1-1,1.2-1.2h0.9c0,0.2-0.2,2-2.1,2s-2.1-1.7-2.1-3.3c0-2,0.7-3.3,2.2-3.3
			c1.7,0,2.1,1.4,2.1,3c0,0.1,0,0.3,0,0.5L303.6,131.4L303.6,131.4z M306.1,130.7c0-1.1-0.2-2-1.2-2c-1.2,0-1.2,1.5-1.2,2H306.1z"/>
		<path d="M308.6,132.6c0,0.7,0.4,1.2,1.1,1.2s1-0.4,1-1c0-0.7-0.3-1-1.2-1.3c-1.3-0.5-1.7-1-1.7-1.9s0.5-1.7,1.8-1.7
			c1.4,0,1.8,1,1.8,1.8h-0.9c0-0.3-0.1-1.1-1-1.1c-0.6,0-0.9,0.4-0.9,0.9s0.2,0.8,1.1,1.1c1.2,0.5,1.8,0.9,1.8,2
			c0,1.2-0.7,1.9-2,1.9s-2-0.8-2-2h1.1V132.6z"/>
		<path d="M319.1,132.5c0,0.3-0.2,2.1-2,2.1c-1.7,0-2.1-1.5-2.1-3.4c0-1.8,0.6-3.3,2.2-3.3c1.9,0,1.9,1.7,1.9,2h-0.9
			c0-0.3-0.1-1.2-1-1.2s-1.3,1-1.3,2.5c0,1.6,0.3,2.6,1.2,2.6c0.9,0,1-0.9,1.1-1.3L319.1,132.5L319.1,132.5z"/>
		<path d="M324.3,131.1c0,2.3-0.8,3.4-2.2,3.4c-1.5,0-2.2-1.1-2.2-3.4c0-2.2,0.9-3.3,2.2-3.3C323.5,127.9,324.3,129,324.3,131.1z
			 M320.8,131.2c0,1.7,0.4,2.6,1.3,2.6c0.8,0,1.2-0.8,1.2-2.6c0-1.6-0.4-2.5-1.3-2.5C321.3,128.7,320.8,129.4,320.8,131.2z"/>
		<path d="M325.5,130c0-1.3,0-1.7,0-2h0.9c0,0.2,0,0.4,0,0.8c0.2-0.5,0.7-1,1.5-1c0.9,0,1.6,0.5,1.6,2v4.6h-0.9V130
			c0-0.8-0.3-1.3-1-1.3c-0.9,0-1.2,0.6-1.2,1.9v3.8h-0.9V130z"/>
		<path d="M330.3,128h0.9v-1.7h0.9v1.7h1.1v0.8h-1.1v4.2c0,0.4,0.1,0.7,0.6,0.7c0.2,0,0.3,0,0.5,0v0.7c-0.2,0.1-0.5,0.1-0.8,0.1
			c-0.8,0-1.2-0.3-1.2-1.3v-4.4h-0.9V128z"/>
		<path d="M337.8,133.3c0,0.4,0,0.9,0.1,1.1H337c0-0.1-0.1-0.5-0.1-0.7c-0.2,0.5-0.7,0.8-1.5,0.8c-1.2,0-1.7-1-1.7-1.9
			c0-1.2,0.8-2.1,2.5-2.1c0.3,0,0.5,0,0.7,0v-0.9c0-0.5-0.1-1.1-1-1.1s-1,0.7-1,1.1H334c0-0.9,0.5-1.9,2-1.9c1.2,0,1.8,0.6,1.8,1.8
			V133.3z M336.9,131.4c-0.2,0-0.3,0-0.6,0c-1.1,0-1.6,0.5-1.6,1.3c0,0.6,0.3,1.1,1,1.1c0.9,0,1.2-0.7,1.2-2V131.4z"/>
		<path d="M339.3,128h0.9v6.4h-0.9V128z M339.3,125.4h0.9v1.3h-0.9V125.4z"/>
		<path d="M341.8,130c0-1.3,0-1.7,0-2h0.9c0,0.2,0,0.4,0,0.8c0.2-0.5,0.7-1,1.5-1c0.9,0,1.6,0.5,1.6,2v4.6h-0.9V130
			c0-0.8-0.3-1.3-1-1.3c-0.9,0-1.2,0.6-1.2,1.9v3.8h-0.9V130z"/>
		<path d="M348,131.4c0,1.3,0.2,2.4,1.2,2.4s1.1-1,1.2-1.2h0.9c0,0.2-0.2,2-2.1,2s-2.1-1.7-2.1-3.3c0-2,0.7-3.3,2.2-3.3
			c1.7,0,2.1,1.4,2.1,3c0,0.1,0,0.3,0,0.5L348,131.4L348,131.4z M350.4,130.7c0-1.1-0.2-2-1.2-2c-1.2,0-1.2,1.5-1.2,2H350.4z"/>
		<path d="M356.5,125.4v7.4c0,0.6,0,1.3,0,1.7h-0.9c0-0.2,0-0.6,0-0.9c-0.2,0.6-0.6,1-1.5,1c-1.3,0-1.9-1.1-1.9-3.4
			c0-2.1,0.8-3.3,2.1-3.3c0.8,0,1.2,0.4,1.3,0.7v-3.2C355.6,125.4,356.5,125.4,356.5,125.4z M353.1,131.1c0,1.9,0.4,2.6,1.2,2.6
			c1,0,1.3-0.9,1.3-2.6c0-1.9-0.3-2.4-1.2-2.4C353.6,128.7,353.1,129.4,353.1,131.1z"/>
		<path d="M222.2,140.6c-0.2,0.8-0.4,2.1-0.4,2.9H221c0-1,0.3-2.4,0.6-2.9H222.2z M223.8,140.6c-0.2,0.8-0.4,2-0.4,2.9h-0.8
			c0-1.1,0.3-2.3,0.6-2.9H223.8z"/>
		<path d="M224.8,141h1.9c2,0,2.9,1.4,2.9,4.1c0,2.9-0.8,4.5-3,4.5h-1.8L224.8,141L224.8,141z M225.8,148.8h0.8
			c1.6,0,2.1-1.3,2.1-3.7c0-2.3-0.6-3.3-2.1-3.3h-0.8V148.8z"/>
		<path d="M234.9,147.9c0,0.8,0,1.5,0,1.8H234c0-0.2,0-0.4,0-0.9c-0.2,0.6-0.8,1-1.5,1s-1.6-0.3-1.6-1.9v-4.6h0.9v4.4
			c0,0.8,0.2,1.3,1,1.3c0.7,0,1.2-0.4,1.2-1.8v-3.9h0.9L234.9,147.9L234.9,147.9z"/>
		<path d="M236.4,145.1c0-1.1,0-1.6,0-1.9h0.9c0,0.2,0,0.5,0,0.8c0.3-0.6,0.7-0.9,1.4-0.9s1.1,0.3,1.3,1c0.2-0.5,0.7-1,1.5-1
			s1.5,0.4,1.5,1.9v4.7h-0.9v-4.5c0-0.7-0.2-1.2-0.9-1.2c-0.8,0-1.1,0.7-1.1,1.6v4.1h-0.9v-4.5c0-0.8-0.3-1.2-0.9-1.2
			c-0.8,0-1.1,0.7-1.1,1.7v4h-0.9L236.4,145.1L236.4,145.1z"/>
		<path d="M245.6,149v3h-0.9v-6.9c0-0.9,0-1.5,0-1.9h0.9c0,0.1,0,0.5,0,0.9c0.2-0.6,0.7-1,1.5-1c1.2,0,1.9,1.1,1.9,3.2
			c0,2.3-0.8,3.4-2.1,3.4C246.1,149.8,245.7,149.4,245.6,149z M248,146.4c0-1.6-0.4-2.5-1.2-2.5c-1,0-1.3,1-1.3,2.5s0.1,2.5,1.2,2.5
			C247.6,148.9,248,147.9,248,146.4z"/>
		<path d="M250.6,147.8c0,0.7,0.4,1.2,1.1,1.2c0.7,0,1-0.4,1-1c0-0.7-0.3-1-1.2-1.3c-1.3-0.5-1.7-1-1.7-1.9s0.5-1.7,1.8-1.7
			c1.4,0,1.8,1,1.8,1.8h-0.9c0-0.3-0.1-1.1-1-1.1c-0.6,0-0.9,0.4-0.9,0.9s0.2,0.8,1.1,1.1c1.2,0.5,1.8,0.9,1.8,2
			c0,1.2-0.7,1.9-2,1.9s-2-0.8-2-2h1.1V147.8z"/>
		<path d="M254,143.2h0.9v-1.7h0.9v1.7h1.1v0.8h-1.1v4.2c0,0.4,0.1,0.7,0.6,0.7c0.2,0,0.3,0,0.5,0v0.7c-0.2,0.1-0.5,0.1-0.8,0.1
			c-0.8,0-1.2-0.3-1.2-1.3V144H254V143.2z"/>
		<path d="M258.5,146.6c0,1.3,0.2,2.4,1.2,2.4s1.1-1,1.2-1.2h0.9c0,0.2-0.2,2-2.1,2s-2.1-1.7-2.1-3.3c0-2,0.7-3.3,2.2-3.3
			c1.7,0,2.1,1.4,2.1,3c0,0.1,0,0.3,0,0.5L258.5,146.6L258.5,146.6z M260.9,145.9c0-1.1-0.2-2-1.2-2c-1.2,0-1.2,1.5-1.2,2H260.9z"/>
		<path d="M263,145.4c0-1,0-1.7,0-2.2h0.9c0,0.2,0,0.5,0,1.1c0.3-0.8,0.9-1.2,1.7-1.2v1c-1.1,0-1.7,0.7-1.7,1.9v3.6H263V145.4z"/>
		<path d="M269,141h1.9c2,0,2.9,1.4,2.9,4.1c0,2.9-0.8,4.5-3,4.5H269V141z M269.9,148.8h0.8c1.6,0,2.1-1.3,2.1-3.7
			c0-2.3-0.6-3.3-2.1-3.3h-0.8V148.8z"/>
		<path d="M275.3,143.2c0.5,2.1,1.2,4.6,1.3,5.4l0,0c0.1-0.7,1-4.1,1.4-5.4h0.9l-1.8,6.4h-1l-1.7-6.4H275.3z"/>
		<path d="M279.8,143.2h0.9v6.4h-0.9V143.2z M279.8,140.6h0.9v1.3h-0.9V140.6z"/>
		<path d="M282.3,145.2c0-1.3,0-1.7,0-2h0.9c0,0.2,0,0.4,0,0.8c0.2-0.5,0.7-1,1.5-1c0.9,0,1.6,0.5,1.6,2v4.6h-0.9v-4.4
			c0-0.8-0.3-1.3-1-1.3c-0.9,0-1.2,0.6-1.2,1.9v3.8h-0.9V145.2z"/>
		<path d="M291.8,149.2c0,1.7-0.4,2.9-2.2,2.9c-1.7,0-2-1.1-2-1.8h0.9c0,0.4,0.2,1,1.1,1c1.1,0,1.3-0.8,1.3-2.1v-0.6
			c-0.2,0.7-0.8,1-1.5,1c-1.3,0-1.9-1.1-1.9-3.1c0-2.3,0.9-3.4,2.1-3.4c0.9,0,1.2,0.4,1.4,0.8c0-0.3,0-0.6,0-0.7h0.9
			c0,0.3,0,1,0,1.9L291.8,149.2L291.8,149.2z M288.5,146.5c0,1.6,0.4,2.3,1.2,2.3c1,0,1.3-1,1.3-2.5s-0.2-2.4-1.2-2.4
			C288.9,143.9,288.5,144.8,288.5,146.5z"/>
		<path d="M292.8,143.5c0.2-0.8,0.4-2,0.4-2.9h0.8c0,1.1-0.3,2.3-0.6,2.9H292.8z M294.3,143.5c0.2-0.8,0.4-2.1,0.4-2.9h0.8
			c0,1-0.3,2.4-0.6,2.9H294.3z"/>
		<path d="M299.5,147.8c0,0.7,0.4,1.2,1.1,1.2s1-0.4,1-1c0-0.7-0.3-1-1.2-1.3c-1.3-0.5-1.7-1-1.7-1.9s0.5-1.7,1.8-1.7
			c1.4,0,1.8,1,1.8,1.8h-0.9c0-0.3-0.1-1.1-1-1.1c-0.6,0-0.9,0.4-0.9,0.9s0.2,0.8,1.1,1.1c1.2,0.5,1.8,0.9,1.8,2
			c0,1.2-0.7,1.9-2,1.9s-2-0.8-2-2h1.1V147.8z"/>
		<path d="M304.7,149v3h-0.9v-6.9c0-0.9,0-1.5,0-1.9h0.9c0,0.1,0,0.5,0,0.9c0.2-0.6,0.7-1,1.5-1c1.2,0,1.9,1.1,1.9,3.2
			c0,2.3-0.8,3.4-2.1,3.4C305.2,149.8,304.9,149.4,304.7,149z M307.1,146.4c0-1.6-0.4-2.5-1.2-2.5c-1,0-1.3,1-1.3,2.5
			s0.1,2.5,1.2,2.5C306.7,148.9,307.1,147.9,307.1,146.4z"/>
		<path d="M309.3,143.2h0.9v6.4h-0.9V143.2z M309.3,140.6h0.9v1.3h-0.9V140.6z"/>
		<path d="M312.6,146.2c0.4-0.6,1.5-2.2,2.1-3h1c-0.6,0.8-1.2,1.6-1.8,2.5l2,4h-1.1l-1.5-3.2c-0.2,0.2-0.5,0.7-0.7,0.9v2.3h-0.9v-9
			h0.9V146.2z"/>
		<path d="M317.2,146.6c0,1.3,0.2,2.4,1.2,2.4s1.1-1,1.2-1.2h0.9c0,0.2-0.2,2-2.1,2s-2.1-1.7-2.1-3.3c0-2,0.7-3.3,2.2-3.3
			c1.7,0,2.1,1.4,2.1,3c0,0.1,0,0.3,0,0.5L317.2,146.6L317.2,146.6z M319.6,145.9c0-1.1-0.2-2-1.2-2c-1.2,0-1.2,1.5-1.2,2H319.6z"/>
		<path d="M325.7,140.6v7.4c0,0.6,0,1.3,0,1.7h-0.9c0-0.2,0-0.6,0-0.9c-0.2,0.6-0.6,1-1.5,1c-1.3,0-1.9-1.1-1.9-3.4
			c0-2.1,0.8-3.3,2.1-3.3c0.8,0,1.2,0.4,1.3,0.7v-3.2H325.7z M322.3,146.4c0,1.9,0.4,2.6,1.2,2.6c1,0,1.3-0.9,1.3-2.6
			c0-1.9-0.3-2.4-1.2-2.4C322.9,143.9,322.3,144.6,322.3,146.4z"/>
		<path d="M329.6,143.2h0.9v6.4h-0.9V143.2z M329.6,140.6h0.9v1.3h-0.9V140.6z"/>
		<path d="M332.1,145.2c0-1.3,0-1.7,0-2h0.9c0,0.2,0,0.4,0,0.8c0.2-0.5,0.7-1,1.5-1c0.9,0,1.6,0.5,1.6,2v4.6h-0.9v-4.4
			c0-0.8-0.3-1.3-1-1.3c-0.9,0-1.2,0.6-1.2,1.9v3.8h-0.9V145.2z"/>
		<path d="M339.6,149.6L339.6,149.6c0-1.1,0.6-2.2,1.9-3.7c1.1-1.2,1.4-1.6,1.4-2.6c0-0.8-0.2-1.4-1.1-1.4c-0.8,0-1.1,0.6-1.2,1.6
			h-0.9c0-1.2,0.6-2.4,2.1-2.4s2,1,2,2.2c0,1.1-0.4,1.7-1.5,2.9c-1,1.1-1.5,1.9-1.7,2.5h3.4l-0.1,0.8L339.6,149.6L339.6,149.6z"/>
		<path d="M349.1,145.4c0,3.1-0.6,4.4-2.2,4.4c-1.7,0-2.2-1.5-2.2-4.4c0-3.2,0.8-4.2,2.2-4.2C348.5,141.2,349.1,142.3,349.1,145.4z
			 M345.7,145.3c0,2.4,0.2,3.6,1.3,3.6c1,0,1.2-1.2,1.2-3.6c0-2.5-0.3-3.4-1.2-3.4C346.1,142,345.7,142.8,345.7,145.3z"/>
		<path d="M350,149.6L350,149.6c0-1.1,0.6-2.2,1.9-3.7c1.1-1.2,1.4-1.6,1.4-2.6c0-0.8-0.2-1.4-1.1-1.4c-0.8,0-1.1,0.6-1.2,1.6h-0.9
			c0-1.2,0.6-2.4,2.1-2.4s2,1,2,2.2c0,1.1-0.4,1.7-1.5,2.9c-1,1.1-1.5,1.9-1.7,2.5h3.4l-0.1,0.8L350,149.6L350,149.6z"/>
		<path d="M355.1,143.3c0-0.9,0.4-2.1,2-2.1c1.4,0,1.9,0.9,1.9,2.1c0,1.1-0.5,1.6-1,1.8l0,0c0.7,0.2,1.3,0.8,1.3,2.1
			s-0.5,2.6-2.2,2.6c-1.5,0-2.1-1.1-2.1-2.2h0.9c0,0.7,0.3,1.4,1.2,1.4c1,0,1.2-0.9,1.2-1.8c0-1.4-0.6-1.7-1.5-1.7h-0.4v-0.8h0.4
			c0.8,0,1.3-0.3,1.3-1.4c0-0.8-0.2-1.3-1-1.3c-1,0-1.1,0.9-1.1,1.3L355.1,143.3L355.1,143.3z"/>
	</g>
</g>
<text transform="matrix(1.0519 0 0 1 68.4004 254.314)" class="st8 st4 st5">20</text>
<text transform="matrix(1.0519 0 0 1 90.9932 254.3149)" class="st8 st4 st5">30</text>
<text transform="matrix(1.0519 0 0 1 113.5869 254.314)" class="st8 st4 st5">40</text>
<text transform="matrix(1.0519 0 0 1 181.3677 254.314)" class="st8 st4 st5">70</text>
<text transform="matrix(1.0519 0 0 1 136.1807 254.3149)" class="st8 st4 st5">50</text>
<text transform="matrix(1.0519 0 0 1 226.5562 254.3149)" class="st8 st4 st5">90</text>
<text transform="matrix(1.0519 0 0 1 268.7563 254.314)" class="st8 st4 st5">110</text>
<text transform="matrix(1.0519 0 0 1 313.4849 254.314)" class="st8 st4 st5">130 counts</text>
<text transform="matrix(1.0519 0 0 1 45.8066 254.314)" class="st8 st4 st5">10</text>
<text transform="matrix(1.0519 0 0 1 59.1113 229.2739)" class="st4 st9">12</text>
<g>
	<g>
		<g>
			
				<image style="overflow:visible;enable-background:new    ;" width="37" height="38" xlink:href="A4010413F047C131.png"  transform="matrix(1 0 0 1 23.9201 4.5441)">
			</image>
		</g>
		<g>
			
				<image style="overflow:visible;enable-background:new    ;" width="37" height="38" xlink:href="A4010413F047C133.png"  transform="matrix(1 0 0 1 45.9201 4.5441)">
			</image>
		</g>
		<g>
			
				<image style="overflow:visible;enable-background:new    ;" width="37" height="38" xlink:href="A4010413F047C130.png"  transform="matrix(1 0 0 1 68.9201 4.5441)">
			</image>
		</g>
		<g>
			
				<image style="overflow:visible;enable-background:new    ;" width="37" height="38" xlink:href="A4010413F047C137.png"  transform="matrix(1 0 0 1 90.9201 4.5441)">
			</image>
		</g>
		<g>
			
				<image style="overflow:visible;enable-background:new    ;" width="37" height="38" xlink:href="A4010413F047C132.png"  transform="matrix(1 0 0 1 113.9201 4.5441)">
			</image>
		</g>
		<g>
			
				<image style="overflow:visible;enable-background:new    ;" width="37" height="38" xlink:href="A4010413F047C13E.png"  transform="matrix(1 0 0 1 135.9202 4.5441)">
			</image>
		</g>
		<g>
			
				<image style="overflow:visible;enable-background:new    ;" width="37" height="38" xlink:href="A4010413F047C13F.png"  transform="matrix(1 0 0 1 158.9202 4.5441)">
			</image>
		</g>
		<g>
			
				<image style="overflow:visible;enable-background:new    ;" width="37" height="38" xlink:href="A4010413F047C134.png"  transform="matrix(1 0 0 1 180.9202 4.5441)">
			</image>
		</g>
		<g>
			
				<image style="overflow:visible;enable-background:new    ;" width="37" height="38" xlink:href="A4010413F047C135.png"  transform="matrix(1 0 0 1 203.9202 4.5441)">
			</image>
		</g>
		<g>
			
				<image style="overflow:visible;enable-background:new    ;" width="37" height="38" xlink:href="A4010413F047C136.png"  transform="matrix(1 0 0 1 225.9202 4.5441)">
			</image>
		</g>
		<g>
			
				<image style="overflow:visible;enable-background:new    ;" width="37" height="38" xlink:href="A4010413F047C1DC.png"  transform="matrix(1 0 0 1 248.9202 4.5441)">
			</image>
		</g>
		<g>
			
				<image style="overflow:visible;enable-background:new    ;" width="37" height="38" xlink:href="A4010413F047C1DB.png"  transform="matrix(1 0 0 1 270.9201 4.5441)">
			</image>
		</g>
		<g>
			
				<image style="overflow:visible;enable-background:new    ;" width="37" height="38" xlink:href="A4010413F047C1D4.png"  transform="matrix(1 0 0 1 293.9192 4.5441)">
			</image>
		</g>
		<g>
			
				<image style="overflow:visible;enable-background:new    ;" width="37" height="38" xlink:href="A4010413F047C1D7.png"  transform="matrix(1 0 0 1 315.9192 4.5441)">
			</image>
		</g>
	</g>
</g>
<g>
	<g>
		<g>
			
				<image style="overflow:visible;enable-background:new    ;" width="37" height="38" xlink:href="A4010413F047C1D5.png"  transform="matrix(1 0 0 1 23.9201 37.5441)">
			</image>
		</g>
		<g>
			
				<image style="overflow:visible;enable-background:new    ;" width="37" height="38" xlink:href="A4010413F047C1EB.png"  transform="matrix(1 0 0 1 45.9201 37.5441)">
			</image>
		</g>
		<g>
			
				<image style="overflow:visible;enable-background:new    ;" width="37" height="38" xlink:href="A4010413F047C1EC.png"  transform="matrix(1 0 0 1 68.9201 37.5441)">
			</image>
		</g>
		<g>
			
				<image style="overflow:visible;enable-background:new    ;" width="37" height="38" xlink:href="A4010413F047C1EF.png"  transform="matrix(1 0 0 1 90.9201 37.5441)">
			</image>
		</g>
		<g>
			
				<image style="overflow:visible;enable-background:new    ;" width="37" height="38" xlink:href="A4010413F047C1ED.png"  transform="matrix(1 0 0 1 113.9201 37.5441)">
			</image>
		</g>
		<g>
			
				<image style="overflow:visible;enable-background:new    ;" width="37" height="38" xlink:href="A4010413F047C1EA.png"  transform="matrix(1 0 0 1 135.9202 37.5441)">
			</image>
		</g>
		<g>
		</g>
		<g>
		</g>
		<g>
		</g>
		<g>
		</g>
		<g>
		</g>
	</g>
</g>
<g>
	<g>
		<g>
		</g>
		<g>
		</g>
		<g>
		</g>
		<g>
		</g>
	</g>
</g>
<g>
	<g>
		<g>
		</g>
		<g>
		</g>
		<g>
		</g>
		<g>
		</g>
	</g>
</g>
<g>
	<g>
		<g>
		</g>
		<g>
		</g>
		<g>
		</g>
	</g>
</g>
<g>
	<g>
		<g>
		</g>
		<g>
		</g>
	</g>
</g>
<g>
	<g>
		<g>
		</g>
	</g>
</g>
<text transform="matrix(1.0519 0 0 1 1.5869 59.665)" class="st3 st4 st5">2022</text>
<text transform="matrix(1.0519 0 0 1 1.5869 193.1328)" class="st3 st4 st5">2018</text>
<text transform="matrix(1.0519 0 0 1 1.5869 126.3994)" class="st3 st4 st5">2020</text>
</svg>
